<?xml version="1.0" encoding="UTF-8"?>
<svg id="Livello_1" xmlns="http://www.w3.org/2000/svg" version="1.1" width="943" height="1080" viewBox="0 0 943 1080">
  <!-- Generator: Adobe Illustrator 30.1.0, SVG Export Plug-In . SVG Version: 2.1.1 Build 136)  -->
  <path d="M350.8,814.9c.2-.4-.2-1.7,1.5-1.5l-1.5,1.5Z"/>
  <path d="M436.1,361.5c-4.1.3-6.5-3-10.5-3l6-1.5c-5.7-7-4.4-7.5-3-16.5l-5.9,6c2.1-7.4-.8-14.9-1.1-21.5-.1-3.3,4-7.3,4-7.7.2-2.4-4.2-.7-4.3-.9-10.8-26.2-15.6-13.3-25.9-26.8-6-7.9,1-6,2.6-9,2.5-5-2.7-12.7,6.5-6.7.2.1-1.8,3.3-1.2,3.8s4.1-2.2,5.1-1.5c2.6,2,.9,4.1,2.2,5.2s5.6.3,6.1.7c1.6,1.3-8.9,7.5-4.5,10.4,1.3.9,11.5-14.8,16.5-5.1,2.7,5.2-3.7,1.5-4.3,4.6-2.9,14.8,6.5,1.6,10.2,2-6.9-16.2,1.5-6.1,10.1-1.6.6.3,16.6,3.8,2.5,6.1-1.7.3-8.3-4.1-12.6-4.6.5,1.2-.5,5.5,0,6s13,3.4,15,3c.2,5.5-20.2,2.4-8.2,8.9,1.5.8,13-7.8,13.5-9,1.3-3.1-1.6-8.1-.8-8.9.6-.5,8.6,1,8.9,1.6.9,1.5-2.4,7.8-1.5,8.9s15.4,5.6,17.9,11.3c-13.1,4.6,1.1,4.7,1.5,5.2,2.1,2.4-6.1,11.8-6.8,12-4.5.9-3.4-3.1-4.4-3.1-2.3,0-4.2,3.6-7.4,3.2-1.8-.3-14.4-7.7-17.3-6.1s1.8,20.6-4.5,24.7l7.4-5.3,1.5,11.9c-8.1-5.9-6.1.8-9,1.5-.6-.5-6.2-12.6-7.5-2.2-.2,1.4,3-1.3,3,3.7ZM404.7,279.2c-.3-.2-4.3-.1-4.5,0-2.7,1.9,7.1,1.8,4.5,0ZM407.7,289.6c3.2-6.9-8.1-7.5-5.9-.7.9,2.9,5.8,1,5.9.7ZM419.6,295.6c-.1-.2-2.7-.6-3,.8-1,4.4,5.3,2,3-.8ZM422.6,306.1v-3h-1.5v3h1.5ZM430.1,304.6c-.1-.2-2.7-.6-3,.8-1,4.4,5.3,2,3-.8ZM461.5,307.6c-.1-.2-4.5-.6-4.5.7,0,2.9,7.5,2.9,4.5-.7ZM466,307.6c0-.1-3.1-.6-3,.7-.3,3,.4,2.9,2.3.7.6-.4,1-1,.7-1.5ZM433.1,309.1c-.2-.2-4.3-.2-4.5,0-4,4,8.4,4,4.5,0ZM457,313.5c-13.1-9.1-12.4,8.6-6,4.5.5-.3-2.3-6.7,6-4.5ZM443.2,316.8c-7.7-12.4-17.9,14.1-14.4,16.1,1.3.7,8.6-1,8.8-1.4.6-.9-10.1-3.4,1-11.8.7-.5,8.7,3.8,4.6-2.8ZM429.4,316.6v1.5l.7-.7-.7-.7ZM454,319.5v-3h-1.5v3h1.5ZM473.5,324c2.6-3.4-2.9-3.3-3-.7,0,1.3,2.9.9,3,.7ZM440.6,324.1c-3.4-2.6-3.3,2.9-.7,3,1.3,0,.9-2.9.7-3ZM454,324.1c-.1-.2-2.7-.6-3,.8-1,4.4,5.3,2,3-.8ZM467.5,324.1c-2.3-4.1-6.8,4.8-6,7.5,3.1,1.4,6.2-7,6-7.5ZM439.1,342c4.6-4.2-2.6-7-7.5-4.5-1.6,3.8,7.2,4.8,7.5,4.5ZM439.1,346.5c-2-7.2-13.7,1.5-7.5,4.5s7.9-2.8,7.5-4.5Z"/>
  <path d="M359.8,755.1c.7,2.3-1.4,6.3-1.3,6.8.4,1.3,11.3.4,1.3,11.2-4.8-3.7-.8-5.5-1.5-6-1.2-.8-20.5,14.4,1.5-12Z"/>
  <path d="M379.3,551.5,409,631.5c1,2.2,4.8-1.1,4.7,3.1,0,5-13.1,8.6-17,8s-2.2-5.6-3.9-4.3c-7.9,6,7.8,9.8,10.2,10.8s.1,4,.3,4.1c2.9,1.2,10.1-3.4,10.4-3s-3.3,17.3,4.5,4.5c0,14.3,13-3.9,13.1,5.2,0,8.5-7.1,2.1-7.7,2.3-3.2,1.3-3.6,5.8-3.9,5.9-2.4,1-.8-3.6-2.2-3-1.6.7-2.8,5.4-4.5,6s-3.5-2.3-3.7-2.3c-7.7.8,6.6,9.5,10.5,3.7-9.4,8.9,5.4,19.3,6.1,3.6s-7.4-5.5.9-7.8c12.3-3.4-5,9.6,13.9,8-23.6,6.6-5.9,6.4-6,7.4-.1,2.2-7.2,1.9-8.4,3.7-.6.9,2.6,11.9-2.8,12-6.5.1,1.6-13.8-3.7-8.9-7.1,6.5,1.8,13.3,8.2,13.4,1.4,0,2-4.4,2.3-4.4,5-.5,2.1,3.4,3.7,3,11.8-3.6-13.9-10.9,6.7-7.5.1,1.9-2.9,6.6,0,10.5l3-4.5c3.6,3.7,5.4,1.3,6,1.5.6,1.3,1.4,2.9,3,3-1.7,2.7-4.2,7.2-4.5,10.5l-1.5-3c-11.6,7.6-3.6,7-3,7.5-1.1,3.2-.5,14.3,4.5,11.2-1.1,1-14.4,7.5-6.7,9.7,1.3.4,14.5-11.5,2.2-20.9.9-2.7,7.7-3.9,9-3,.6.4-1.8,4.2-1.5,4.5,5.3,3.7,10.1,2.5,10.5,3,3.4,4.6,8.2,25.5-6,19.5,18.8-19.8-10.5-3.7-10.5-2.2,0,2.3,17.2,4.1,13.4,9.6-2.2,3.2-13.4-.9-4.4,7.6-.8,2.8.3,3.6,3,3,1.6-4.2-2.4-2.4-3-3,6.5-21.7,8,18.3,9,19.5,1,1.1,4-4.9,6,3-7.8-23.9,15.2,10.1-4.5,1.5,6.7,4.8-.5,11.5,0,11.9,3.8,3.8,8.3-9.9,10.5-7.5,4.2,4.8,2.3,20.9,1.5,26.9.3-1-2.3-20.1-3-21s-8.3,7.7-11.3,7.5c-5.2-.4-3.7-9.4-9.7-9,8,8.5-2.7,9.7-3,10.5-1.6,4.4,8.5,16.6,15,8.9-1-4.9-16.4.7-8.8-7.3,6.3-6.8,17,7.4,13.3,13.3,1.1-1,7.4-2.6,7.5-3-.4,2.8-3.1,5-3,5.2,1,2.7,8.7,3.3,8.9,3.8,2.3,3.6-11.5,14.2-3,1.5-22.4,3.7-9.3-2.3-12-7.4s-5.6-2.5-7.4.7c-.9,1.5,6.6,10.6,7.9,13.2,1.3,2.5-.7,5.3-.4,5.5.9.8,7.5-4.4,9-1.5,2.5,4.9-16.3,16-17.9,19.4,7.4-3.8,8.6,1.6,12,1.5.4,0-.4-8.9,4.3-2.8s-2,2.5.9,6,15,4.6,1.6,5.8c-1.7.2,1.1-6.2-3.7-4.5-.6,16.3,15.6,7.2,17.1,7.5,1.6.3,2.7,4.9,3.9,5.2,3.1.8,8.9-.9,11.5,1.1,8.9,6.9-6.7,22.6-7.1,15.3,0-1,4-1.5,4.4-3.4,5.8-30.1-16.4,18.4-10.4-4.8-14.2,2.6,8.7,13.7,9.8,13.5,5.1-1,2.3-8.7,7.4-6,10.1,5.5-3.3,5.6-3.7,6s3.5,5.5,3,5.9c-1.5,1.3-6.8-1.7-7.5-1.5s.2,3.3,0,3.4c-10.6,3-.5-4.4-1.5-7.8-2.5-8.5-18.7,8.9-19.9,8.8-2.1-.2-29.4-25.8-31.6-28.4-14.5-16.9-35.4-62.9-36.4-84.8-1.2-26.3,18.9-50.6,3-77.8-4.2-7.1-28.7-19.2-34.8-25-15.2-14.6-33-62.4-58.9-59.1-14.1,1.8-18.2,16.4-26.3,25.3,10.6-1.1,9.6,6.6,14.9,13.5-4.9,4-11.5-18.3-12-5.2-.2,6.8,13.7,8.6,15,9.7,3.1,2.5-3.4,3.2-3,3.7,2.7,3.3,7.3,1.5,9,3,2.5,2.2,1.5,8.4,3.7,11.2,2.1,2.6,8.5,2,11.7,7.5,4.3,7.3-6.4,4.9-9.4,2.9-.5-.3-3.4-16-4.6-3.6s11,8,12.9,11.2c6.7,11.6-7.7,11.5-8.3,5.2s12.2-4,1.9-6.4c-5.7-1.3-7.2,5.4-6.4,7.1s10.5.8,6,10.5c16.3-13.1,9.9,17,16.5,25.5,2.8-13.8,21.4,8.1,7.5-12-9.7,9.6-9.6,1.9-5.6-7.1.4-.8,4.1-.5,5-1.8.3-.5-.2-13.8,5-6.6,6.7,9.3,4.7,13.2,5.2,21.6.3,5.2,8.6,11.8-.6,10.5-1-3.1-2.6-6.5-6.7-6.1-7.7.8.7,12.3-.8,13.6s-8.6.3-9,0c-.7-.6,2.1-5.1,1.5-6-8-11.5-5.3,10.4-7.5,11.9,11-11.5,9.6,5.2,9,6s-5.4-5.3-7.4-.7c-.7,5,5.3.2,5.9.7,3.3,2.4-7.2,20,9,6.7-16.2-5.2,2.6-4.5,6-8.2.7.5,4.6-.5,6,0s-17,18.8-17.3,20.1c-.7,3.1,2.4,7.7,5.4,5.3.4-.3-1.8-5.8,1.9-10.1.3-.4,8.3-5.2,8.6-4.9.9,1.1,2.2,14.2,1.5,14.9-.9,1.1-9.3-3.3-10.5-.7s2.8,12.8,3.8,12.7c3.2-.4,2.8-10.7,6-5.9.5.8,5.3,17.7,5.4,18.7.3,4.4-3.9,5.7-4.2,7.4s2.6,2.1,2.1,5.3-5.4,5.2-5.5,8.2c-.1,2.6,6.5,4.1,0,14.2,5.8-5.9,14.7-11.6,4.5-16.4l11.9,3c-10,12.3-9.7,21.6,9,22.4l-.8-6c4.5,4.8,7.5,17.2-1.5,17.9-7.6.6,3.6-7.7,2.3-8.9-2.9-2.8-14.2,9.5-5.8,16.3,6.5,5.3,2.5-5.4,2.8-5.8s12.4-2.5,14.3,0c10.8,14.1-15.6,9.7-9.8,15,2.4,2.2,9.8-8.8,9,4.5,1.3-9.7,12.1.3,8.2,3-2.5,1.7-2.4-3.2-2.9-3-25.4,9.6,27.8,6.2-.8,21.7,18.4,5.5,9.2,2.2,14.2-9.7,8.7,5.1,1.1,7.4,2.6,11.7,1.9,5.4,14.1,5.1,17.3,10.4,3,4.9.5,14.1-5.7,7.9-.5-.5,1.4-8-9-9-1.2,3.8,8.7,8.4,9,9,3.8,10.2-7.5,5.8-8.1,6-9.3,3.6-22.8,7.8-32.2,1.4-.8-.6.4-5.3-.1-5.9-2.3-2.8-3.7,13.4-13,1.1-2.6-3.4-1.6-9.6-2-10s-4.6,2.2-5.9.8c-13.9-14.6-22-44-31.9-61.8-16.6-30.1-33.9-31.2-30.6-74.1,1.1-13.7,11.4-41.8,9.8-53.9-2.1-15.6-34.7-36.7-43.7-47.6-10.2-12.3-41.5-59.8-41.4-74,0-7.7,18.5-48-3.7-39.7-10.4,3.9-14.4,20.3-20.2,25.5-.6.6-17.9-.2-9,7.5-2.5-3,5.5-8.6,6-3.8-7.6,4.8-7.3,17.8-16.4,11.3-2.3,6.5,4.7,3.7,4.5,5.2s-14,20.3-17.9,15.7c7.7,2.4-3.7,11.1-6.7,10.5-.7-.1,1.5-8.7-3-4.5-6.1,5.7,1.3,7.9.7,9.7s-5.3,3.2-5.8,4c-1,1.6,1.9,3.4,0,6.5s-5.9.5-6.1.7c-.4.6,2,1.3-1.5,6,.2-.1.5-4.5-.7-4.5-2.9,0-2.9,7.6.7,4.5-4,5.3-26.6,30.2-26.9,32.3-1.6,9.3,18.3,22.2,12.7,35.2-.6,1.4-8.9,1.1-4.5,4.4.4.3,6.2-4.6,3.4,3.4-3.4,9.6-8.1-1.6-13.1-1.9,7.8,9.5-9,12.3-16.9,10.1-30.2-8.1-43.5-43.7-36.8-72.1,7.4-31.7,22.6-1,28.9.8,10.2,2.8,40.6-38.5,43.5-39.1,3.5-.7,2.7,7.4,8.2,3.8,5.6-3.6-4.3-3.9-3.1-9,.1-.6,5.8-6.7,7.5-9.3s17.2-19.7,18-21.1c8.3-14.8-3.2-18.5-7.2-29.9-1.7-4.9,3.6-2.4,2.7-4.9s-5.2-3.8-7-10.2c-2.1-7.2-.8-22.2-1.9-25.7-.1-.4-5.4-.4-6-2.7-3.3-12.6-8.8-29.4-6.9-42.4.2-1.1,8.9-19.6,9.8-20.1,3.2-1.9,4.5,3.2,7.5,2.3.8-5-6.5-4-7.4-6.8-.7-2.2,10.2-15.5,11.2-15.6s3.6,7.5,6.7,4.5c.5-.5-3.4-5-3-5.9s13.8-4.3,14.5-4.3c4.1,0,4.5,9.1,7.9,10.2-7.9-14,19.5-14.7,29.2-15.1,6-.3,9.8,3.1,16.3,3.2,6.2,0,13.7-7.9,10.5-9.1-3.2-1.1-6.4,6.8-5.3-6.8,1.8-21.1,13.9-35.9,7.4-57.9-.7-2.3-8-11.8-9.9-18.8-3.9-14.3-22-74.8-2.4-80.8,22.7-6.9,26.9,27.4,26,42.3-.3,4.4-4.8,1-4.6,3,.4,3.3,5.7.7,5.9.9,5.7,6.3-2.6,8.7-2.9,9.6-.6,1.6,3.1,4.2,3,4.5-.9,3.1-7.7,1.5-7.4,3,.9,6,9.1-1.1,10.9-.5,2.6.9,7.1,7.1,10.1,9.4,3.1,2.3,10,2,10.4,2.4.6.5-.6,17.7,7.5,10.4,1.3-1.2-20.7-18.5,16.4-12,.8-4.7-10.2-2.6-10.5-5.2-.3-3,8.6-5,8.9-5.4.7-1,3.9-13.9,8.5-18.9,9.3-10,30.8-21.3,40.9-6.7,13.2,19.1-2.6,45.8-18.7,57.2-.3.2-1.1-5.7-3.7-3-.2.2,0,4.5-2.1,6.1-11.5,9-5.7.1-8.4-.1-24.4-2.3-13.6,15.8-10.5,15,2.9-.8-2-9.5-1.5-10.5,2-3.4,4.9,2.9,5.2,3s3.7-4.6,5.2-3c.9.9-4.8,13.5-5.9,14.3s-17.4-6.4-9.8,11.1c2,4.7,2.3-4.2,5.3-1.5-1.8,26.7-15.3,2.4-19.4,9-6.4,9.9,11.4,6.8,11.9,7.5,4.8,6-3.5,17.1-3,17.9s4.9-.3,5.7,2.2c.4,1.2-8.1,22.5-7.2,23.3s10.4,0,10.4-.8c.1-3.6-11.2-8.6-2.2-9.8,1-.1,0,4.9,3.7,3-4.7-19,8.4-18.4,9-1.5,5.5-1.5,6.8-17.5,11.9-12,.7.7-10.9,23.1,0,14.9.9-.7-4-5.3.7-4.5,12.8,11.3,3.7-1.4,3.8-2.2,0-.8,6.4-5.1,4.5-6.8s-5.8,1.1-6-.7c-.9-8.7,10.5.7,11.2.8,13.6,1.9,10.8-6.9,11.5-7.3,4.6-2.8,19.6-10.1,22.9-4.7.2-7.3,23.6-6.6,24.7-7.4.4-.3-1.3-9,5.1-7.6,6.4,1.4,2,23.9,11.4,0-20.5,9.2,14.5-26.1-4.5-13.5,1.6-3.9.3-19,1.5-21s5.6,2.7,6-.7c.1-1.3-7.8-.3-6-6,.6-1.9,17.9-2,17.9-9.7l-20.9,3.7c12.2-8.9.7-.6,1.5-9.7,6.2-1.2,10.5,10.6,10.5,0,1.9-.1,3.1-1.2,4.5-1.5,2.2,1.9,6,1.6,6.8,2.9,1.8,2.7,5.5,20.5,6.7,24.8-1.6-1.6-16.1-4.4-13.5,0,2.5,4.3,8.8.7,12.1,3.2,4.8,3.7-1.6,8.8-6.1,2.1-2,7.1,4.7,3.6,7.4,7.2,3.2,4.3,8.1,40.6,7.1,47.1-.2,1.5-7.2,22.5-7.9,23.5-6.9,9.2-18-11.8-29.7-11.9-3.4,0-63.9,12.3-67,13.6-16.9,6.9,4.6,20.3,4.9,21.6s-7.5,5.1-4.5,8.2c3.8,3.9,2.5-7.5,7.4-5.9,5.7,1.8,11.8,25,11.9,30.8,0,5-5.9.3-4.4,4.3,1.4,3.9,4.4,3.3,4.6,4.8,0,0,2.5,16.3,1.2,18.6s4.1,4,4.9,7.6c.7,3.4.3,6.5.8,9.4.4,2.9,2.8,8.7,2.8,8.7,0,0-1.5,3.8,0,6.6,1.5,2.8,2.2,4.8,2.2,4.8,0,0,3,3.9,4.4,10.6,1.6,7.7,5.3,9.3,5.3,9.3,0,0,6,8.1,5.3,10.2s5.8,9.6,5.8,9.6ZM259.6,310.6c.9-.9-.6-5.9-2.2-5.9-4.4-.2-.5,8.8,2.2,5.9ZM251.4,313.6v1.5l.7-.7-.7-.7ZM261.1,315.1c-.1-.2-2.7-.6-3,.8-1,4.4,5.3,2,3-.8ZM259.6,330c.5-.6-.9-1.6-1.5-2.2-3.5-2.3-.9,5.1,1.5,2.2ZM326.2,336v1.5l.7-.7-.7-.7ZM256.6,340.5c-4-4-4,8.5,0,4.5s.2-4.3,0-4.5ZM276,348c-.1-.2-4.4-1.2-4.4-.8-.2,2.1,6.3,3.3,4.4.8ZM265.6,348c-3.4-2.6-3.3,2.9-.7,3s.9-2.9.7-3ZM277.5,356.9c-1.5-.2-5.4-4.7-7.4-2.9s-3.8,16.2-3,16.5c4.9,1.3,2.1-3.5,3.1-4.3s5.4.3,5.9-.2-2.4-4.7-1.5-6c.4-.5,14.2-1.9,5.2-6-2.9-1.3-2.1,2.9-2.3,2.9ZM255.1,357c-.5,2.4,4.4,4.4,5.9.7-.7-2.8-5.9-1-5.9-.7ZM301.5,355.5c-.1-.2-2.7-.6-3,.8-1,4.4,5.3,2,3-.8ZM335.9,358.4c1.3-1-3.3-3.8-6-1.5-.6,2.5,5.7,1.6,6,1.5ZM313.4,362.9c-.2-2.2-8.6-4.8-9-4.5-3.1,2.7,6.7,6.1,9,4.5ZM340.4,358.5h-3v1.5h3v-1.5ZM292.5,365.9c.6-.6-4.4-5.9-6-4.5-.7.6,4.5,6,6,4.5ZM282,365.9c3.1-3.1-2-3-4.5-1.5-.7,2.4,4.3,1.6,4.5,1.5ZM253.6,364.5c-.1-.2-2.7-.6-3,.8-1,4.4,5.3,2,3-.8ZM306,367.4c2.6-3.4-2.9-3.3-3-.7,0,1.3,2.9.9,3,.7ZM347.8,364.5h-3v1.5h3v-1.5ZM262.6,366c-4.7-2.6-4.8,8-2.2,9.1,9.9,3.9,3-8.6,2.2-9.1ZM331.4,370.4c2.1-1.8-4.2-7.4-6-2.2-1.2,3.5,5.7,2.4,6,2.2ZM279,382.4c0-.6,5.6-10,6-10.5s13,3,4.5-4.5c-5.2-4.6-8.6,6.6-10.4,8.2-.7.6-18.9,5.2,0,6.8-.1,1.1.8,3.6,1.5,4.5-2.8-2.3-5.2,4-.8,3,1.4-.3.9-2.9.8-3,7.2,9,8.2-2.6,9.7-3,.5-.1,7.5,6.4,6.7.7-1.5-10.8-11.7-1.8-17.9-2.3ZM301.5,367.5c-1.5.4-7.2,1.1-7.5,2.2-.6,2.6,9.8,5.8,7.5-2.2ZM316.4,367.5c-3.4-2.6-3.3,2.9-.7,3s.9-2.9.7-3ZM309.3,376c-5.1-13.1-8.3,2.7,2.6,3.4,1.8-3.5-2.4-2.8-2.6-3.4ZM267.1,385.4c1.1-7.7-5.8-10.8-1.7-2,.6,1.2-.5,2.4,1.7,2ZM439.1,385.4c2.9-.5-1.5-9.2-3-7.5-.8,1,.3,7.9,3,7.5ZM448.1,377.9h-3v1.5h3v-1.5ZM258.1,383.9v-3h-1.5v3h1.5ZM304.5,386.9c-.4.8-3.5-1.9-4.4-.8,5.5,8.1,9.1-2.1,3-5.2-.9,2,1.8,5.2,1.5,6ZM273,386.9c-3.4-2.6-3.3,2.9-.7,3s.9-2.9.7-3ZM267.1,394.4c2.1,1.2,3.7-4.7.7-4.5-1.3.1-.9,4.4-.7,4.5ZM303,398.9c2.8-2.7-8.3-12-11.9-9-5.5,4.7,11.1,9.8,11.9,9ZM310.4,391.4c-2.5-3.2-6.8,3.2-4.5,6,1.6,1.9,6.4-3.5,4.5-6ZM438.7,393.3c-1.2-1.1-5.8-3-7.1-1.2,8.7,2.9,4,9.3,4.5,9.7,4,4.3,8.9-2.8,2.6-8.5ZM265.6,394.4c-8.1,1.6,6.4,15.1,10.5,15-3.3-2.1-4.1-10-4.5-10.5s-6.4,4.3-6-4.5ZM288,395.9c-3.4-2.8-7,2.9-2.2,4.5s2.4-4.3,2.2-4.5ZM295.5,400.4h-3v1.5h3v-1.5ZM446.6,406.3c1-1.2-1.5-4.9-3-4.5-2.6.7-.1,8.3,3,4.5ZM278.3,403.4v1.5l.7-.7-.7-.7ZM307.5,406.3c.5-.6-.9-1.6-1.5-2.2-3.5-2.3-.9,5.1,1.5,2.2ZM262.6,410.8c4.7,2.5.4-8.1-1.5-6s1.2,5.8,1.5,6ZM288,404.9h-3v1.5h3v-1.5ZM295.3,405c-4.6-4.5-5.7,6.4,1.6,7.3-.1-1.4-1.3-7-1.6-7.3ZM283.8,410.5c-.9-.3-1.5-4.8-3.3-4.1s-9.4,8.5-9,9,14.4,5,14.9,4.5-.7-6.9,4.5-9c-2.4,0-4.8.5-7.2-.4ZM303,406.4c-2.7-1.5-6.2,3.5-2.2,4.5s2.4-4.3,2.2-4.5ZM437.6,406.4c-.1-.2-2.7-.6-3,.8-1,4.4,5.3,2,3-.8ZM445.1,410.8c2,.4,7.1.1,7.4-2.2s-6.8-1.4-7.4,2.2ZM261.1,419.8c3.3-2.8-4.6-8.6-7.3-4.3-3.3,5.3,6.1,5.3,7.3,4.3ZM445.1,415.4c-5.2-1.6-14.8-3.8-8.2,3,.7-6.1,6.1,1.5,8.2-3ZM291,421.3c-3.2.9-16-.2-10.5,4.5.9.8,9-2.2,6,4.5-.2.5-5.9-1.4-4.5,2.2s10.6-3.7,13,4.2-3.1,12.6-2.5,13c7.5,5.2,15.4-11.5,13.5-13.4-1-1-7.7,4.5-7.6-3.8,0-2.3,8.6-13.6-.6-9.7s-1.1,11.3-6.7,7.4c-1.7-1.2-.6-7,0-9,12.8-3.7,2.4-8.4,0-6-.5.5.4,4.6,0,6ZM274.5,421.3c-.8-.7-13.5,1.4-13.4,2.2.5,4.9,11-1.8,11.9,3.7,0-1.4,2.4-5.1,1.5-6ZM256.6,427.3v-3h-1.5v3h1.5ZM280.5,434.8c.4-.3-2.6-8.7-3.7-8.9-7.1-1.6-4.3,16,3.7,8.9ZM265.6,428.8c-.3-.2-4.3-.1-4.5,0-2.7,1.9,7.1,1.8,4.5,0ZM304.5,434.8c2.7,2.9,6.6-6.2,2.2-5.9-1.6,0-3.1,5-2.2,5.9ZM418.1,428.8c-6.2-1.4-2.9,2.8-6,6,3.2.3,6.3-2.9,6-6ZM259.6,430.3c-3.4-2.8-7,2.9-2.2,4.5s2.4-4.3,2.2-4.5ZM407.7,433.3c-4-4-4,8.5,0,4.5.2-.2.2-4.3,0-4.5ZM270.1,434.8c-.7-.8-8.4,1.2-5.8,5.8,3.5,6.2,6.2-5.4,5.8-5.8ZM382.3,437.8c.5-.6-.9-1.6-1.5-2.2-3.5-2.3-.9,5.1,1.5,2.2ZM410.7,439.3v-3h-1.5v3h1.5ZM277.5,443.8c1.9-2.1-2.7-7.9-4.5-6-1.9,2.1,2.7,7.9,4.5,6ZM422.6,440.8v-3h-1.5v3h1.5ZM279,454.2c1.1-5.7,3.5-9.4,3.7-15-5.5,2.1-10.4,15.8-11.2,16.5s-5.3-3.6-7.5.7c-2.5,5,6.9,4.5,7.4,7.5,0,.3-3.5,3.1-3,4.6,3.2,10.4,7.3-.8,12-4.6.6-5-6.3.7-7.5-.7-4.7-6,1.3-8.6,6-9-.3,1.5-3.5,5.4-2.3,5.9,7.5,3.2,5.1-5.4,5.3-5.9,1.3,0,5,2.5,6,1.5s-3.7-11.5-6-1.5c-1,0-2,0-3,0ZM291,439.3c-5-.9-3.9,7.8-4.5,10.5,4.9,1.1,3.4-7.9,4.5-10.5ZM384.5,439.3v1.5l.7-.7-.7-.7ZM401.7,439.3c-3.4-2.6-3.3,2.9-.7,3s.9-2.9.7-3ZM391.2,445.2c3.9-7-9.7-2-6,1.5.4.3,5.8-1.2,6-1.5ZM259.6,442.3c-10.5-.8,8.1,8.4,9,7.4,7.7-8.4-7.6-4.3-8.2-4.4-1.2-.2-.6-3-.8-3ZM418.9,443.8v1.5l.7-.7-.7-.7ZM426.4,443.8v1.5l.7-.7-.7-.7ZM435.4,443.8v1.5l.7-.7-.7-.7ZM450.3,443.8v1.5l.7-.7-.7-.7ZM308.9,452.7c.6-.3,1.3-6.8-.7-7.5-5.4,3-5.7,10.8.7,7.5ZM376.3,454.2c-10.2-18-14.5-.6-13.5,0s10-2.8,13.5,0ZM358.3,448.2c-13,1.9-2.4,8.4,1.5,15l-1.5-15ZM255.9,449.8v1.5l.7-.7-.7-.7ZM295.5,460.2c-.7-.8,2.9-6.9-.8-7.5s-12.2,6.3-6.7,9.8,12-1.2,7.5,5.1c-5,7.1-8.1-7.1-12.7,0-.9,1.4,1.5,4.7.6,5.8-1.3,1.6-16,4.6-5.5,10.4,9.7,5.4,3.6-9.8,8.5-8.5,4.9,1.3,7.9,20.9,12.1,11.9,3.1-6.7-9.1-16.5,1.5-23.9l1.5,3c1.8-1.1,4.2-13.2-2.2-12-2.3.4,1.8,12.9-3.8,6ZM211.7,454.3c-2.6-4.3-6.7,7.3-7.5,9,4.6,2.5,8.5-7.3,7.5-9ZM217,454.2v1.5l.7-.7-.7-.7ZM229.7,454.3h-3v1.5h3v-1.5ZM253.6,454.3c-.2.3,2.8,5.8,3.7,5.9,4.9.7-1.4-8.3-3.7-5.9ZM247.6,455.8c-19.8,1.2-8.6,13.6-4.5,9,1.4-1.7-4.9-5.6,4.5-9ZM322.4,460.2v-3h-1.5v3h1.5ZM334.4,458.8c-4.8-6.8-12.2,1.1-6,10.5,1.2,0,6.3-10,6-10.5ZM226.7,458.8c-.1-.2-4.4-.6-4.5.7-.2,3,5.7,1.4,4.5-.7ZM376.3,458.8h-3v1.5h3v-1.5ZM181.8,460.2c-2.3-2.9-2.2,13.1-1.5,13.5,6.7,2.9,15.2-19.7,3-4.5-.2-2-.5-7.7-1.5-9ZM340.4,464.7c.2-.2,1-5.2-1.5-4.5-1.5,2.5-1.6,7.6,1.5,4.5ZM353.8,460.2c-.2-.2-4.3-.2-4.5,0-4,4,8.4,4,4.5,0ZM365.8,464.7c1.2-1.1-2.1-5.3-3-4.5-1.2,1.2,2.1,5.3,3,4.5ZM214.7,466.2c.2-.3.1-4.3,0-4.5-1.9-2.7-1.8,7.1,0,4.5ZM347.8,466.2c.9-1.4-1.1-4.3-3-4.5-1.4,2.5,1.3,7,3,4.5ZM253.2,468.1c-16.2-9.2-4.7,9.3,7.9,7,1.4-6-5.4-1.1-6-1.5s-.3-4.6-2-5.6ZM264.1,464.7c-3.6-3.1-3.6,4.5-.7,4.5s.9-4.3.7-4.5ZM361.3,469.2c-.1-2.5-8.1-5.2-9-4.5-1.3,1.2,6.3,6.2,9,4.5ZM196.5,475c.5-.2,8.1-7.7,4-8.8-9.2-2.4-13.3,12.5-4,8.8ZM220.7,467.7c-.1-.2-2.7-.6-3,.8-1,4.4,5.3,2,3-.8ZM325.4,467.7c-4-4-4,8.5,0,4.5s.2-4.3,0-4.5ZM328.4,478.2c6.9-.1,10.2-9,22.4-3.7-13.6-10.1-15.8-6.8-22.4,3.7-1.2,0-16.1-10.9-20.9-9,2.6,6.4,14.4,6.6,18,9,.5.3-3.9,10.9,3,0ZM306,470.7c-2.4-4.6-6.6,2.8-5.9,3.7s7.8,0,5.9-3.7ZM211.7,476.7c2.6-3.4-2.9-3.3-3-.7s2.9.9,3,.7ZM234.2,473.7c-.4-.3-9.2-1-9,1.5,3.4,4.3,12.6,1.3,9-1.5ZM241.6,475.2c-.2-.2-4.3-.2-4.5,0-4,4,8.4,4,4.5,0ZM311.9,475.2c-11.5-1.3-11.6,6.5,0,6-6.7-5.1.7-.2,0-6ZM217.7,476.7h-3v1.5h3v-1.5ZM270,476.7c-3.3-2.1-16.5,12.6-1.5,4.5.2,11.1-14.4,7.8-17.2,9s7.8,8,8.2,7.5c.8-1,1.2-7.3,1.5-7.5.5-.4,9.1.7,11.9-1.5l-2.2,6c.5-2.7,6.7-6.2,6.7-6.7,0-.7-6.9-10.9-7.5-11.2ZM182.6,478.2v1.5l.7-.7-.7-.7ZM250.6,482.7c1.1-2.7-2.6-6.2-4.5-2.2-2.5,5.4,4.3,2.6,4.5,2.2ZM189.3,482.7c0,0,.1-.2-1.5,0-1,.1-19.5,4.2-19.4,5.2,0,2.3,6-1.8,5.9,2.9s-3.1,8.2-3.8,12.8-3.8.9-3.6,2.2,10.1,12.6,11.7,16.9c1.1,2.9-2.9,5.3-2.7,5.6.5,1.3,9.8,8.9,9.1,16.2-.4,4-10.8,0,2.9,6.2-15.2.4,6.5,5.9,4.5,12-.2.5-11.4,1.6-6,5.2,2.2,1.5,4.5-3.3,6-3s2.9,11.6,3,0c2.5-.7,4.9-1.2,7.5-1.5-1,2-1.2,6,.7,7.5,8.7,7,12.1-5.8.8-1.5,10.1-4.5,9.5-7.2-1.5-6,3.4-6.6,4.2-.7,8.8-3.2.4-.2-.4-3.5,1-4.4,2.6-1.6,6.1.4,8-.6,2.7-1.3,3.3-6.5,7.1-8,4.6-1.8,22,5.6,24.3,1.2,2.4-4.4-17.3-3.8-18-4.5-3.1-3.1,6-8.6,4.5-10.4s-7.3-.9-7.5-9.8c0-5.7,3.6,2.9,5.9.8,2.6-2.4-4.4-3.4-4.5-6.6,0-2.9,7.3-14,7.4-16.5.2-4-6.4-12.3-5.9-12.8,3.5-3.3,7.7,6,8.2,6s4-5.8,3.7-6c-.9-.6-6.8.6-7.5,0s.5-5.4,0-6-4.8,3.3-8.1,3c-14.5-1.2-25.2-5-41.2-3ZM225.2,479.7h-3v1.5h3v-1.5ZM259.6,479.7c-2.6-2.1-9,1.3-6,4.5,2.6,2.8,6.7-3.9,6-4.5ZM321.8,487.8c-11.7-17.7-7.7,1.5-9.8,3.9s-15.5-6.2-14.9.8c.1,1.7,13.5,14.2,7.5-2.2,8.4,11.9,6.5-.9,15.2.4,11.9,1.8.8,4.1,1.2,6.3.9,4.3,13.3,9.6.8-9.1ZM346.9,483.6c-1-1.7.4-4.4-2-3.9-3.4,9.4,7.9,13.9,2,3.9ZM340.4,484.2c2.6-3.4-2.9-3.3-3-.7s2.9.9,3,.7ZM289.5,482.7c-2.7-.9-7.2,4.2-6,6,1.9,2.6,7.2-2.7,6-6ZM163.8,488.7c0-.1-3-.6-3,.7.1,2.6,5.6,2.7,3-.7ZM339.6,488.7v1.5l.7-.7-.7-.7ZM334.4,490.2c-2.6-2.8-6.7,3.9-6,4.5,2.6,2.1,9-1.3,6-4.5ZM281.3,491.7v1.5l.7-.7-.7-.7ZM291,491.7c-4.8-3.7-6.6,7.1-5.2,7.4s8.1-5.2,5.2-7.4ZM347.8,494.7l-4.5,4.5c4.8.5,5,.4,4.5-4.5ZM255.1,499.2c-2.9,1.7-9.5-4.1-10.5-3-3.1,3.5,7.3,12.6,10.5,3ZM272.3,497.6v1.5l.7-.7-.7-.7ZM259.6,499.2h-3v1.5h3v-1.5ZM270.1,499.2c-1.2.1-4.2-.3-4.5,0-2.5,2.5,3,5.2,4.5,0ZM285,509.6c.4.7-.5,4,0,4.5,2.5,2.8,9.4-8.4,9-9-2.3-3-5.6,4.3-9,4.5-.5-.8-7.2-10.8-8.2-10.5-6.7,2.3,1.6,10.8,8.2,10.5ZM340.4,499.2c-4-4-4,8.5,0,4.5.2-.2.2-4.3,0-4.5ZM303,500.7c-8.3-8.6-3.4,9.4-3,12,2.8-.4,3.4-11.5,3-12ZM325.4,506.6l-6-6c.2,1.4-.4,5.6,0,6s4.5-.2,6,0ZM350.1,500.6v1.5l.7-.7-.7-.7ZM242.4,502.1v1.5l.7-.7-.7-.7ZM273,505.1c-3.6-3.1-3.6,4.5-.7,4.5s.9-4.3.7-4.5ZM243.4,512.9c.9-.8,8.6.4,8.7-2.5s-9.6-4.1-10.4-3.8c-1.5.7-4.7,32.4,12,9.8-1.5-2.5-9.3,6.3-12,3.7s1.4-6.9,1.7-7.2ZM310.5,514.1c4.5,4.5,16.7-12.8-4.5-4.5,11.1-3.7,3.1,3.1,4.5,4.5ZM262.6,508.1l-6,6c1.4-.2,5.6.4,6,0s-.2-4.5,0-6ZM331,508.6c-1.3-.6-5.9-1.7-5.6,1,7.9,8.5,14.7,3.1,5.6-1ZM356.8,508.1c-.3-.2-4.3-.1-4.5,0-2.7,1.9,7.1,1.8,4.5,0ZM285,527.6c-19.4-.5-1.8-13.5-19.4-18,5.6,8.3.8,13.3,6,20.9-5.6.8-6.7-8.6-9-9.7-3.3-1.7-1.9,8.4-2.9,12-1,3.6-5.6,8.5-5.6,10.4,0,1.4,5.8,8,5.5,9.7s-4.5-.8-4.5.8c0,1.5,7.8,4.9,9,3.7,2.7-2.6-6-13.4-6-14.2-.2-2.7,3.3-3.7,4.2-6.2.5-1.5-1.8-5.4-1.1-6.6,2.4-3.9,6.5,6.9,10.4,4.5,1.7-1.1.1-10.1,13.5-7.4ZM365.1,509.6v1.5l.7-.7-.7-.7ZM163.9,515.6c2.1,1.2,3.7-4.7.7-4.5s-.9,4.4-.7,4.5ZM308.9,518.6c1.8-2.8-2.8-7.7-4.5-6s2.6,8.8,4.5,6ZM299.2,514.1v1.5l.7-.7-.7-.7ZM331.4,518.6l-11.9-2.2c3.4,5.3,6.9,3,11.9,2.2ZM350.8,514.1c-.6-.6-16.5,2.9-16.4,3.7,1.1,8.7,15.8-4.2,16.4,2.2-.2-1.4.3-5.7,0-6ZM322.4,538.1c9.3,9.4.8,4.3,0,8.3-.4,1.8,4.6,5.4,3,6.7s-12.8.4-2.9,3.8c14.9,5.1,2.1-9.7,6.8-11.1,6.9-2.1,12.5,10.2,16.4-7.6l-12.7,4.4,3-7.5c-7.2,13.2-22-11-25.4-13.5-1.2-.9-11,7.2-12.7,6-2.1-1.5-3.6-11.7-5.3-11.9-5.4-.7-2,3.5-3,4.4-2.6,2.4-3.6-5.7-7.3-2.9-6.5,5,5.2,4.1,7.4,6.6,2.5,2.8,1,7.9,1.5,8.3.8.8,17.9-3.7,23.9-1.5s-.3,4.3,0,4.5c1.5.7,5.6-1.7,5.9-1.5s.6,3.5,1.5,4.5l-9-1.5c1.2,3.3,10.7,10.9,9,1.5ZM315,524.6c3.9,2.4,5.5-5.1.7-7.4-2.8.8-1.1,7.2-.7,7.4ZM359.8,526.1c1.8-2.7-4.2-9.4-6-7.5-1.1,1.2,4.8,9.2,6,7.5ZM368,518.6v1.5l.7-.7-.7-.7ZM332.9,521.6c-2.5-2.3-3.8,2.1-3,4.5,1.6.5,3.2-4.3,3-4.5ZM156.4,523.1c-.1-.2-4.5-.6-4.5.7,0,2.9,7.5,2.9,4.5-.7ZM335.9,523.1c-.4.3-2.3,9.1.7,8.9,4.3-.3,4.1-12.3-.7-8.9ZM346.3,523.1h-3v1.5h3v-1.5ZM324.9,525.1c-2.6-.9-6.4-2.2-5.5,2.4l8.9,3c1.3-1.6-3.1-5.3-3.5-5.4ZM250.6,526.1c-21.8,6.1,12.1,17.5,3.6,7.3-1.5-1.8-11.6-2.1-3.6-7.3ZM363.6,526.1v1.5l.7-.7-.7-.7ZM361.3,527.6c-4.9-5.7-2.5,5.6-5.2,7.7s-8.3-1.2-8.3,2.1,11.4,2.6,11.9,2.3,1.9-11.5,1.5-12ZM369.5,527.6v1.5l.7-.7-.7-.7ZM303,532.1c-1.7-2.5-4.3,2-3,4.5,1.9-.2,3.9-3.1,3-4.5ZM345.6,532.1v1.5l.7-.7-.7-.7ZM308.5,539.2c1.9-13.5-10,4.3-7,7.8,2.8,3.3,6.9-6.8,7-7.8ZM271.2,538.4c-6.6-7.9-4.7,8.2,1.9,8.6,0-2.8,0-6.4-1.9-8.6ZM277.6,538.1c-5.8,6.8,12,10.5,11.9,5.2,0-.7-11.5-5.7-11.9-5.2ZM178.8,545.5c1.1-2.2-2.4-5.5-4.5-4.5-3.1,1.6,4.3,4.8,4.5,4.5ZM298.5,541.1c-4.3-4.9-7.2,2.4-3,7.5,2.6.2,3.3-7.1,3-7.5ZM166.1,542.5v1.5l.7-.7-.7-.7ZM310.5,542.6c-.4.2-4.7,7.7-.8,8.9,5.1-1.7,6.7-11.3.8-8.9ZM374.8,545.6c-.1-.4-7-3.3-7.5-3s1.7,3.5,1.5,3.7c-4.9,3.7-3.8-1.6-6,0-19.2,12.9,15.2,7.6,12-.6ZM354.6,545.6c-2.6,0-2.6,5.9,0,5.9s2.6-5.9,0-5.9ZM288,548.5c-.4.3.4,8.7,2.2,8.9,7.7,1,5.4-13.9-2.2-8.9ZM283.5,550c-3.6-3.4-9.9,5.8-10.5,6-3.1.8.7-6.1-4.5-4.5-.5,6.4.4,15.6,9,10.5.4-.2-1.4-8.1,0-9s16.7,7.3,6-3ZM305.9,553.1c-5.1-6.8-15.7,12.5-14.9,13.4,1.7,1.7,7.4-6.7,9.1-8.2,1.2-1.1,9.7,0,5.8-5.2ZM232.7,557.5c1.5-1.5-2.9-6-4.5-4.5s2.9,6,4.5,4.5ZM240.1,553c-.2-.2-4.3-.2-4.5,0-4,4,8.4,4,4.5,0ZM344.8,553c-2.6-2-12.5,1.5-13.4,5.2s4.6,0,3,5.2c0,.3-4.2-.8-4.6.8-.2.9-2,18-1.4,18.7.3.3,7.8,2,8.9-.8,2.8-7.2-4.3-4.7-4.4-5.2s1.3-8.5,1.5-9,4,.5,4.3-.1c.5-1.1,6.8-14.3,6.2-14.8ZM373.3,553c-.1-.2-2.7-.6-3,.8-1,4.4,5.3,2,3-.8ZM252.1,554.5c-6.6-3.1-2.9,9.1-3.1,9.6-.8,1.8-9.4,2.8-5.8,6.8s4.9-5.3,8.4-5.8,2.5,5.1,6.5,2.8c3.3-1.9,2-15.1-6-5.2-2.1-1.5,4-6.4,0-8.2ZM183.3,560.5c.2-.1.6-4.4-.7-4.5-3-.2-1.4,5.7.7,4.5ZM350.8,556c-5.1,1.1-11,18-9,19.4,8.1,5.7,3.5-8.7,8.2-8.9,3.1-.2-.2,9,5.2,7.4,1.6-9.7-6.9-5.7-4.5-17.9ZM226.7,557.5c-2.8-1.8-9.6,3.6-9,7.5,1.7-.8,13.2-4.8,9-7.5ZM244.6,557.5c-.1-.2-4.4-.6-4.5.7-.2,3,5.7,1.4,4.5-.7ZM358.3,563.5c1.9-2.1-2.7-7.9-4.5-6s2.7,7.9,4.5,6ZM373.5,564.8c.5.2,10.8,13.2,5.3,1.5-4.2-8.8-21.8-.2-15,6,5.6,5.1,5.8-9.2,9.7-7.5ZM237.2,560.5c-2.4-2.3-6.2,5.1-4.5,7.5,3.7,5,4.9-7,4.5-7.5ZM289.5,560.5c-.1-.2-2.7-.6-3,.8-1,4.4,5.3,2,3-.8ZM314.9,560.5c-3.1,0-7.8-.9-9,3,2.4-.1,8.4.2,9-3ZM285,562c-2-1.7-6.2,3.4-4.5,6,.5.8,7.4-3.5,4.5-6ZM304.5,562c-2.4-2.4-6.8,2.1-4.5,4.5,2.4,2.4,6.8-2.1,4.5-4.5ZM278.6,572.1c-1.1-4.6-3.6-13.3-8.5-5.6-1.6,2.5,6.6-.2,4.5,4.4-9.2,4.1-5.9-2.7-13.5-3-2.1,6.5,4.3,4,4.5,4.5.3.7-10.2,13.3,3,8.3s-3.4-4.6-1.5-6.8c14.9,5.9,3,6.4,3,8.2.2,13.3,6-1.4,6.3-1.9.6-1.1,4-1.5,4.1-2.6s-4.5-1.6-4.5-3c0-3.4,2.7-2.2,2.6-2.6ZM229.7,565c-4.1.1-7,3.6-10.5,5.2,2.2,3.9,8.6-4.5,10.5-5.2ZM304.5,584.4c6.1,3.9,6.2-11.3,11.1-15.2,2.5-1.9,4.8.8,6.8-.5,7.1-4.7-21.7-3.5-13.5,11.2-11.3-8.8-5.2,4-4.5,4.5ZM380.8,568.8,169.1,566.5v1.5l.7-.7-.7-.7ZM178.1,566.5v1.5l.7-.7-.7-.7ZM359.1,566.5v1.5l.7-.7-.7-.7ZM295.5,577c3.8-5.8-9.7-10.7-13.5-3.4l7.6,18.4c8.6-2.7-7.5-16.7-4.5-19.4,3.3-3,8,8.2,10.5,4.5ZM326.9,571c-2.7-1.4-15.4,2.9-10.4,6,.5.3,11.7-1.4,10.4-6ZM208.7,578.5c1.6-3.5-4.8-6.5-6-2.2-1.1,4.2,5.6,3,6,2.2ZM380.8,576.9c.5-.6-.9-1.6-1.5-2.2-3.5-2.3-.9,5.1,1.5,2.2ZM180.3,575.5c-2.4-2.4-8.4,3.5-6,6,2.4,2.4,8.4-3.5,6-6ZM243.1,578.5c2.6-3.4-2.9-3.3-3-.7s2.9.9,3,.7ZM374.8,575.5c-4.5-.7-6.7,1.3-6,6l6-6ZM196.8,577c-.2-.2-5.9-.6-6,.7-.3,4,7.8.8,6-.7ZM217.7,577c-.6-.5-4.7,0-6,.7-8.5,5.5,12.6,4.6,6-.7ZM259.6,577c-2-2.6-7.1,2.4-4.5,4.5,1.8,1.4,5.8-2.7,4.5-4.5ZM300,577c-1.5-1.6-6,3-4.5,4.5s5-3.9,4.5-4.5ZM388.3,581.5,250.6,578.5c-2.3-2.3-6.3,4.7-2.2,4.4,1,0,3.1-3.6,2.2-4.4ZM353.8,581.4c.5-.6-.9-1.6-1.5-2.2-3.5-2.3-.9,5.1,1.5,2.2ZM358.3,585.9c1.2.6,6.6-5.9,2.2-7.5-6.4-2.2-2.7,7.2-2.2,7.5ZM383.7,582.9c.2-.1.6-4.5-.7-4.5-2.9,0-2.9,7.6.7,4.5ZM231.2,580h-3v1.5h3v-1.5ZM193,581.5v1.5l.7-.7-.7-.7ZM203.5,581.5v1.5l.7-.7-.7-.7ZM374.8,581.5h-3v1.5h3v-1.5ZM294,594.9c25.2,5.8-4.2-17.8.7-8.9,1.5,2.7,6.4,1.6,5.3,5.9l-6,3ZM344.8,583c-.1-.2-5.3-1.3-4.5,2.2s6,.5,4.5-2.2ZM362.8,587.4c.8.8,4.2-3.2,3-4.5s-4.2,3.4-3,4.5ZM247.6,587.4v-3h-1.5v3h1.5ZM264.1,584.5c-4-4-4,8.5,0,4.5.2-.2.2-4.3,0-4.5ZM318.7,584.5l.8,2.2.8.7v-1.5l-1.5-1.5ZM195.3,591.9c.4-.3-1.9-10.5-4.5-4.5-1,2.3,2.5,5.6,4.5,4.5ZM285,586h-3v1.5h3v-1.5ZM317.9,594.9c2-10.9-8.3-12.3-3-2.2s-1.1,3,3,2.2ZM199,587.4v1.5l.7-.7-.7-.7ZM217.7,587.5c-.1-.2-2.7-.6-3,.8-1,4.4,5.3,2,3-.8ZM368.8,587.5c-6.1-6.4-2.1,19.6,10.5,14.9,1.2-4.7-3.5-2.3-5.4-4.4s1.4-4.2.9-4.6c-.9-.6-3.1,3-3.7,2.8-5.2-1.8-1.7-8.3-2.3-8.8ZM385.2,593.4c.6-.6-1.4-6.1-2.2-6-4.8.9,0,8.4,2.2,6ZM338.9,588.9c-4-4-4,8.5,0,4.5s.2-4.3,0-4.5ZM356.6,590.6c-2.7-1.6-14-1.3-13.3,5.1.7,6.1,6.3-2.1,6.7-2.2.7,0,21,5.4,6.6-2.9ZM212.5,590.4v1.5l.7-.7-.7-.7ZM277.1,591c-17.8-1.7-4,11-1.8,4,6.1,7.4,10.7-3.1,1.8-4ZM331.4,590.4c-5.3-4.1-2.8,11.6,1.5,6,.2-.2-1.3-5.8-1.5-6ZM259.6,592c-1.2.1-4.2-.3-4.5,0-2.5,2.5,3,5.2,4.5,0ZM178.8,593.4c-1.4-.9-4.3,1.1-4.5,3,2.5,1.4,7-1.3,4.5-3ZM267.1,597.9c1.4-1.8-2.7-5.8-4.5-4.5-2.6,2,2.4,7.1,4.5,4.5ZM387.4,603.5c-1.2-.8-8.7,2-9,4.5,2.1.3,14.9-.7,9-4.5ZM289.5,594.9c-16.5,7.3-3.1,11.6,7.5,11.9-.9-7.2-12.5-1.6-7.5-11.9ZM205.7,597.9c-9.7,1.5-.8,6.9,0,6s-.2-4.5,0-6ZM301.5,608.4c5.5,4.9,3.9-12.4-6-10.4,5.8,2.3,5.5,10,6,10.4ZM262.6,602.4v-3h-1.5v3h1.5ZM316.4,600.9c-3.6-3.1-3.6,4.5-.7,4.5s.9-4.3.7-4.5ZM190.8,606.9c-.5-.6-.1-4.4-3-4.5-1.4,6.4,2.5,3.9,3,4.5s-1.5,4.2,3,3c1.4-4.4-2.5-2.5-3-3ZM273.1,605.4c-.1-.3-5.7-3.3-6-3-3.1,3,8,8.2,6,3ZM362.8,602.4c-7.6.6-1.1,11,4.5,6.8,4.2-3.2-2.1-12.1-3.8-2.3l-.7-4.5ZM344.8,606.9c2.6-3.4-2.9-3.3-3-.7s2.9.9,3,.7ZM320.9,606.9c0-.1-3.1-.6-3,.7-.3,3,.4,2.9,2.3.7.6-.4,1-1,.7-1.5ZM282,608.4c-.2-.2-4.3-.2-4.5,0-4,4,8.4,4,4.5,0ZM389.7,614.4c-.8-.6,1.6-6.3-1.5-6-4.4,7.4,3.5,11.8-3.8,12-9.9.2,5.5-13.7-6.8-6.7-19.1,10.8,15.3,9,16.5,9.7,2.9,1.7-5.4,6.6-3,9,.6.6,3-1.7,4.3-1.2s0,2.6.2,2.6c4.3.2,2.9-4.9,9-3-1.1-2.8-11.4-9.6-12-11.2-1.3-4.3,6.1.1,4.5-5.2-1.8-.4-6.7.6-7.5,0ZM358.3,611.4c-.1-.2-4.4-1.2-4.4-.8-.2,2.1,6.3,3.3,4.4.8ZM373.3,609.9c-1.7-2.5-4.3,2-3,4.5,1.9-.2,3.9-3.1,3-4.5ZM294.7,611.4v1.5l.7-.7-.7-.7ZM187.8,617.4c-1.5-5.1-7-2.5-4.5,0,.3.3,3.3-.1,4.5,0ZM350.8,614.4h-3v1.5h3v-1.5ZM288,620.4c1.6-1.5-3-6-4.5-4.5s3.9,5,4.5,4.5ZM371.8,615.9c-.2-.2-5.9-.6-6,.7-.3,4,7.8.8,6-.7ZM279,617.4c-2.6.5-8.5,2.4-7.5,6,2.6-.5,8.5-2.4,7.5-6ZM299.3,617.4c-3.1.5-1.9,5.1,1.4,4.5s1.9-5.1-1.4-4.5ZM349.3,620.4c-.1-.2-4.4-.6-4.5.7-.2,3,5.7,1.4,4.5-.7ZM186.3,621.9c-11-3.2-11.8,11.1-5.1,14.8,6.5,3.6,8.7-15.4,1.3-1.4-8.7-7,0-7.8,3.7-13.4ZM293.3,621.9v1.5l.7-.7-.7-.7ZM359.8,624.8v-3h-1.5v3h1.5ZM295.5,629.3c-3.1-.3-8.2-4-11.9-4.5-1.3,3.8,10.6,7.6,11.2,7.5,1.6-.2.3-2.7.7-3,3.1.3,3.4.3,3-3-4.1-1.6-2.7,2.8-3,3ZM270.8,626.4v1.5l.7-.7-.7-.7ZM366.5,626.4v1.5l.7-.7-.7-.7ZM172.8,627.9c-.6-.5-7.2,1.2-7.5,1.5-4.1,5.7,11.6,2,7.5-1.5ZM282,629.4c-3.4-2.6-3.3,2.9-.7,3s.9-2.9.7-3ZM303,630.9c-2.3-2.3-6.3,4.7-2.2,4.4,1,0,3.1-3.6,2.2-4.4ZM379.3,633.8c3-2.9,11.6,3.4,11.9,2.3.9-3.1-11.6-10.1-11.9-2.3ZM173.6,633.8v1.5l.7-.7-.7-.7ZM295.5,633.8c-6.9-.6-1.3,8.4,1.5,9l-1.5-9ZM410.7,636.8c-1.5-5.1-7-2.5-4.5,0s3.3-.1,4.5,0ZM377.8,644.3c2.5,2.6,8.3-7.8,3.7-7.4s-4.7,6.4-3.7,7.4ZM404.7,636.8h-3v1.5h3v-1.5ZM281.3,638.3v1.5l.7-.7-.7-.7ZM177.3,639.8c-.2-.2-4.3-.2-4.5,0-4,4,8.4,4,4.5,0ZM284.3,641.3c-3.1.5-1.9,5.1,1.4,4.5,3.1-.5,1.9-5.1-1.4-4.5ZM369.5,641.3v1.5l.7-.7-.7-.7ZM162.4,642.8c-3-1.9-9,7-6,9,1.9,1.2,8.5-7.4,6-9ZM281.3,645.8v1.5l.7-.7-.7-.7ZM292.5,650.3c.9-1.4-1.1-4.3-3-4.5-1.4,2.5,1.3,7,3,4.5ZM391.2,650.3c.2-.2-1.9-4.5-2.2-4.5-4.7.7-1.1,7.8,2.2,4.5ZM380.9,655c.1-.4,8.9-3.9,2-6.2-3.9-1.3-7.7,12.6-.7,11.9-.3-2-2.1-3.5-1.3-5.7ZM394.2,660.8c4.6-8.9-3.2-11.6-4.5-3.8,0,.3,3.8,3.4,4.5,3.8ZM289.5,657.8c2.1-1.8-4.2-7.4-6-2.2-1.2,3.5,5.7,2.4,6,2.2ZM388.2,654.8c-2.8-1.8-4.7,4.3-4.5,4.5,1.8,1.3,5.4-2.1,4.5-4.5ZM410.7,665.3c.5-.5,0-4.8-.7-6.1-4.8-8.4-17.2,14.4-6.1,10.6,3.5-1.2.4-5.7.8-6,1-.7,5.4,2.2,6,1.5ZM159.4,659.3c-4.4-3.1-2.2,5.6-1.5,6,2.3,1.3,3.1-4.8,1.5-6ZM147.4,660.8h-3v1.5h3v-1.5ZM134.7,668.3v1.5l.7-.7-.7-.7ZM150.4,669.8c-2.2.3-6.4-1.3-6,1.5,2.2-.3,6.4,1.3,6-1.5ZM295.5,669.8c-3.3.6-7.1.7-6,4.5l6-4.5ZM305.2,672.8c-2.9.3-3,6.3,1.5,5.9,4.1-.4-.3-6.1-1.5-5.9ZM406.2,677.2v-3h-1.5v3h1.5ZM83.1,680.2c-.1-.2-2.7-.6-3,.8-1,4.4,5.3,2,3-.8ZM304.5,681.7c-1.8-1.4-5.8,2.7-4.5,4.5,2,2.6,7.1-2.4,4.5-4.5ZM317.9,689.2c.9-.9-.6-5.9-2.2-5.9-4.4-.2-.5,8.8,2.2,5.9ZM85.3,684.7v1.5l.7-.7-.7-.7ZM135.4,686.2c-4.6-1.3-4.9,5.9-2.2,6,1,0,2.3-4.6,2.2-6ZM415.1,690.7c1.2-1.1-2.1-5.3-3-4.5-1.2,1.2,2.1,5.3,3,4.5ZM298.5,693.7c1.4-2.8-5.5-2.5-6-1.5-1.4,2.8,5.5,2.5,6,1.5ZM310.4,695.2c.2-.1.6-4.5-.7-4.5-2.9,0-2.9,7.6.7,4.5ZM81.6,695.2v-3h-1.5v3h1.5ZM412.9,692.2v1.5l.7-.7-.7-.7ZM319.4,693.7c-.2-.2-4.3-.2-4.5,0-4,4,8.4,4,4.5,0ZM414.4,698.2v1.5l.7-.7-.7-.7ZM307.5,701.2c-2.3,2.3,4.7,6.3,4.4,2.2s-3.6-3.1-4.4-2.2ZM314.9,701.2c-2.5,2.3,7.5,8.4,7.4,3.7,0-1.5-6-5.1-7.4-3.7ZM304.5,702.7c-1.4-.9-4.3,1.1-4.5,3,2.5,1.4,7-1.3,4.5-3ZM424.1,705.7c-.1-.2-2.7-.6-3,.8-1,4.4,5.3,2,3-.8ZM433.1,710.1c.2-.2-1.9-4.5-2.2-4.5-4.7.7-1.1,7.8,2.2,4.5ZM319.4,708.7h-3v1.5h3v-1.5ZM438.3,708.7v1.5l.7-.7-.7-.7ZM76.4,710.2v1.5l.7-.7-.7-.7ZM314.9,711.7c-.2-.2-7.1-1.3-6,2.2,1.7,5.2,8-.4,6-2.2ZM319.4,714.7h-3v1.5h3v-1.5ZM436.1,714.7c-1.7.3-7.1-.9-7.5.7-.4,2.1,7.4,2.9,7.5-.7ZM317.9,722.1c2.3-2.3-4.7-6.3-4.4-2.2s3.6,3.1,4.4,2.2ZM309.7,722.1v1.5l.7-.7-.7-.7ZM442.1,728.1c-3.2.6-8.2-7.8-10.5-6-1.6,1.2,8,10.2,10.5,6ZM326.9,726.7c-1.9-3.8-9.4-.5-7.5,5.9,5.7-7.6-.3,2.3,5.9,1.5-.5-2,2-6.4,1.5-7.4ZM335.9,725.1c-.2-.2-4.3-.2-4.5,0-4,4,8.4,4,4.5,0ZM431.6,728.1c.5-.6-.9-1.6-1.5-2.2-3.5-2.3-.9,5.1,1.5,2.2ZM457,728.1c-.1-.2-2.7-.6-3,.8-1,4.4,5.3,2,3-.8ZM359.8,740.1c1.3-1.3-6.1-10.5-6.7-10.4-8.7,1.2,4,13.1,6.7,10.4ZM427.9,732.6v1.5l.7-.7-.7-.7ZM439.1,732.6h-3v1.5h3v-1.5ZM136.9,734.1h-3v1.5h3v-1.5ZM315.7,735.6v1.5l.7-.7-.7-.7ZM337.4,746.1c-.5-1.1-2.7-14.1-6-10.4-.4.5,2.2,11.8,6,10.4ZM322.4,741.6c.2-.3.1-4.3,0-4.5-1.9-2.7-1.8,7.1,0,4.5ZM436.1,740.1c1.2-2.1-4.7-3.7-4.5-.7s4.4.9,4.5.7ZM335.5,749.4c-.2-.4-6.8-6.3-8.5-2.6,1.1,5.1,12.4,10.7,8.5,2.6ZM436.9,746.1v1.5l.7-.7-.7-.7ZM451.1,747.6c-.2-.2-5.7-.6-6,.7-.9,4.5,10.1,2.7,6-.7ZM324.7,749.1c-2.2,0-2.2,4.4,0,4.4,2.2,0,2.2-4.4,0-4.4ZM445.1,755.1c.1,0,.6-3-.7-3-2.6.1-2.7,5.6.7,3ZM445.1,758.1c-.1-.3-5.6-1.8-6-1.5s4,4.2,3.1,7.9-13.6,9.7-5.3,10c3.7.1,8.9-15,8.2-16.4ZM436.9,761v1.5l.7-.7-.7-.7ZM451.1,762.6c-.3-.2-4.3-.1-4.5,0-2.7,1.9,7.1,1.8,4.5,0ZM328.4,764.1c-.1-.2-4.5-.6-4.5.7,0,2.9,7.5,2.9,4.5-.7ZM457,764.1c-4.2-1.6-9.7,13.9-1.5,10.4-4.8-3.3,6.6-8.6,1.5-10.4ZM330.6,777.5v1.5l.7-.7-.7-.7ZM343.4,777.5c-2.5-2.6-8.3,7.6-3.7,7.5.4,0,4-7.2,3.7-7.5ZM457,777.5c-7.9-4-4.9,14.8,1.5,9,.3-.3-1.1-8.7-1.5-9ZM328.4,779c-1.1-.9-5.9.7-5.9,2.2,0,4.7,10.3,1.3,5.9-2.2ZM439.1,785c.2-.1.6-4.4-.7-4.5-3-.2-1.4,5.7.7,4.5ZM334.4,786.5h-3v1.5h3v-1.5ZM445.7,788.9c-1-.6-.1-2.8-1.3-2.4-14.2,5.3,15.5,11.9,1.3,2.4ZM463,791c1.2-1.1-2.1-5.3-3-4.5-1.2,1.2,2.1,5.3,3,4.5ZM340.3,788c-7.2,2.2.4,13.9,6,10.5,1.1-.7-7.4-7.9-6-10.5ZM362.8,791c-.1-.2-2.7-.6-3,.8-1,4.4,5.3,2,3-.8ZM449.6,798.5h-3v1.5h3v-1.5ZM440.6,803c-4-4-4,8.5,0,4.5s.2-4.3,0-4.5ZM341.8,811.9c.2-.3.1-4.3,0-4.5-1.9-2.7-1.8,7.1,0,4.5ZM352.3,813.4c-.3-.1-.6-5.3-3-3.8-2.8,1.8-2.3,6.8,1.5,5.3-6.2,10-.4,3.7,2.4,7.4s-1.4,4.1-.9,4.6c3.8,3.7,18.9-11.4,11.2-11.9-.8,0-16.1,15.6-9.7,1.5s6,1.8,4.5-3c-1.7-.4-4.8.5-6,0ZM426.9,817.7c2.1-1.5,2-8.3-2-7.3-3.9,1-3.2,11.2,2,7.3ZM438.3,813.4v1.5l.7-.7-.7-.7ZM449.6,816.4c-.1-.2-4.4-.6-4.5.7-.2,3,5.7,1.4,4.5-.7ZM344.8,817.9c-1.4-.9-4.3,1.1-4.5,3,2.5,1.4,7-1.3,4.5-3ZM457,825.4c-.6.3-2.2,12.7,3.7,10.4,5.6-2.1,0-12.5-3.7-10.4ZM350.2,831c0-.7,1.9-3.6-.1-4.1-9.7,5-1.2,14.6.1,4.1ZM442.1,831.4h-3v1.5h3v-1.5ZM365.8,837.4c1.6-2.3-9.3-6.6-12-4.5-4,3.2,9.4,8.2,12,4.5ZM456.3,837.4v1.5l.7-.7-.7-.7ZM469,843.3c-.9-2.5-4.8-5.5-7.4-5.2,2.4,3.2,2.5,6.2,7.4,5.2ZM355.3,844.8c.2-.3.1-4.3,0-4.5-1.9-2.7-1.8,7.1,0,4.5ZM463,844.9c-.2-.2-5.2-1-4.5,1.5,2.5,1.5,7.6,1.6,4.5-1.5ZM362.8,847.9l-12-1.5c-.8,5.6,10.9,6.1,12,1.5ZM451.8,849.3v1.5l.7-.7-.7-.7ZM347.1,855.3v1.5l.7-.7-.7-.7ZM356.8,861.3c6.8,4.4,2-10.2-1.5-6-.2.2,1.3,5.8,1.5,6ZM470.4,861.5c-4.1-6.2-5.1,5.3-2.1,5.8,3.6.7,2.6-5,2.1-5.8ZM364.3,864.3c-9.4-3.9-3.7,6,0,3s-.3-2.7,0-3c7.2,3,11.3,9.6,9,16.5-1.2.7-3.9-1.7-3,3,4.5.7,2.3-1.1,3-3,.7-.4,3.3.3,4.5,0-4.4-3.3,2-8.6-.3-11.7s-10.3-7.5-11-7.7c-3.6-1-1.8,2.6-2.2,3ZM365.8,874.8c7.1-7.8-7.2-4.1-10.5-3,.2,3,10.1,3.4,10.5,3ZM478,879.3c1.2-1.9-3.7-9.6-6-10.5,1.2,1.6,2.3,16.1,6,10.5ZM467.5,873.3v-3h-1.5v3h1.5ZM492.9,874.8c-3.2-1.2-9.1-3-9,2.2.2,5.3,8.2,2.1,9-2.2ZM370.3,879.3v-3h-1.5v3h1.5ZM481,888.3c8.7,4.5-.1-10.3-4.5-7.5-.4.2,4.1,7.3,4.5,7.5ZM365.1,882.3v1.5l.7-.7-.7-.7ZM390,886.5c-.8-1.3,1.8-3.2.5-4.2-4.5,5.3-3.4,8.9,3.7,7.4,0-2.3-3.6-2.2-4.3-3.3ZM374.8,888.3c-.3-.2-7.9-1-7.5,1.5,3.5,4,10.6,1,7.5-1.5ZM382.5,892.6c-.3-.1-3.5-7.8-4.7-2.1-2.3,11.9,10.5,2.3,10.4,1.5-.2-1.2-3.6,1.4-5.7.6ZM471.3,888.3v1.5l.7-.7-.7-.7ZM486.2,889.8v1.5l.7-.7-.7-.7ZM478,894.2c.5-.6-.9-1.6-1.5-2.2-3.5-2.3-.9,5.1,1.5,2.2ZM484,892.8c-2.7-1.5-6.2,3.5-2.2,4.5,3.5.9,2.4-4.3,2.2-4.5ZM395.7,898.8h-3v1.5h3v-1.5ZM391.2,900.2c-1.5.2-5.5-.4-6,0-3.2,2.6,4.9,5.3,6,0ZM388.2,909.2c2.3,2.3,6.3-4.7,2.2-4.4-1,0-3.1,3.6-2.2,4.4ZM371,907.7v1.5l.7-.7-.7-.7ZM386.7,909.2c-2.2.3-6.4-1.3-6,1.5,2.2-.3,6.4,1.3,6-1.5ZM378.5,910.7v1.5l.7-.7-.7-.7ZM400.2,924.2c1.1-5.8-5.4-5.2-7.5-9-1,3.3,4.1,9.1,7.5,9ZM373.3,924.2c-1.5-5.1-7-2.5-4.5,0,.3.3,3.3-.1,4.5,0ZM418.1,937.6l1.5-10.5c-4.6,1.2-5.6,8-1.5,10.5ZM375.5,928.7v1.5l.7-.7-.7-.7ZM407.7,934.6c2.4-2.3-6.3-8.1-9-6-.8.6,5.5,9.3,9,6ZM389.7,933.1v-3h-1.5v3h1.5ZM403.2,939.2c-1.3-.8-4,0-5.3,1.4-6.6,7.3,14.4,4.1,5.3-1.4ZM424.1,943.6v-3h-1.5v3h1.5ZM418.1,946.6c.2-.1.6-4.4-.7-4.5-3-.2-1.4,5.7.7,4.5ZM411.4,943.6v1.5l.7-.7-.7-.7Z"/>
  <path d="M187.8,482.7h1.5-1.5Z"/>
  <path d="M440.6,695.2c-.1-2.2-1.9-11.5-1.5-12,6.6-6.2,2.6,5.6,3,6s10.5.3,11.8,3.2c1.8,4.1-9.4,8.7,4.6,7.3,0,4.3-2.9,1.3-6,6,.6-4.5-.7-2.4-3-3-1.4-3.3-1.2-8.7-1.5-9-.5-.6-5.5,1.8-7.5,1.5Z"/>
  <path d="M675.4,472.2c-1.3.1-1.3-.4-1.5-1.5.5-.4,1.8.5,1.5,1.5Z"/>
  <path d="M516.9,334.5c.8-.9,1.1-1.1,1.5-1.5,0,0,0,2-1.5,1.5Z"/>
  <path d="M534.8,301.6h1.5-1.5Z"/>
  <path d="M506.4,324c-2.4,3.6-2.9,2.8-3,3,.7-.4,1.1-2.1,3-3Z"/>
  <path d="M504.9,425.8c.2.2,3.6-2.1,4.5-1.5s1.3,5.8,1.5,6c-.6-.4-3.9.4-4.5,0-.9-.7-1.2-4.3-1.5-4.5Z"/>
  <path d="M504.9,425.8c-.4-.4-.5,0-1.5-1.5.7.4,1.1,1.3,1.5,1.5Z"/>
  <path d="M606.6,550l-1.5-1.5,1.5,1.5Z"/>
  <path d="M623.1,371.9c-11.9-9.6-.4-11.1-3-13.5s-14.3,10.5-15.1-6.7c-.4-9.7,4.8-40.3,15.6-43,24.1-5.9,8.9,39.5,24.4,44.9,13.8,4.8,23.3-12.6,33.3,3.3-7-19.3,18.5-7.8,19.4-9s-1.5-9.3,8.3-12c-1.6,1.5,1,22,5.2,16.4,1.5-2-2.8-8.4-2.6-11.5s2.6-3.6,2.6-4.9-2.9.4-3-.8,4.1-5.5,2.7-13.1c-1.9-9.7-19.9-22.1-10.1-37.4,11.3-17.6,33.7,25.7,35.9,34.2.8,3.2-3.5,5.6-3,6.6s7.4-2.2,4.5,10.5l-2.9-1.5c-4.3,5.9,1.7,7.9,1.3,9.5-.8,3.3-4.4,6.1-5.9,8.4.9-1-11.1-24.6-10.5-4.5,5.6-4.1,6.9,8.5,10.5,4.5-1.4,2.3-2.6,6.3-3,9-10.2-14.8,4.2,10.6-17.3,12.1-.4,0-8-2.7-8.1-3.1-.3-1.9,12.4-15.6.8-15-6.2.3-3.1,15.3-3.8,18.6-.4,1.7-4,1.6-4.5,3.1s3.8,2.9,2.8,5.1c-4.1,9.4-11.3,0-14.3-1-1.4-.5-3.8,1.3-4.3,1.1s-3.1-10.1-3.7-2.3c-.8,9.9,13,11.9,1.8,18.7-19.2,11.6-15-7.2-19.8-5.9-5.4,1.5,7.1,13.4,7.2,14.2.1,2-12.2,23.5-19.9,21.8s1.2-6-3.7-4.5c5.5,11.4-9.7,8.6-10.4,11.2s3.8,5.7,6.5,5c3.2-.9,3.2-5.3,4.9-5.8,4.7-1.3,12.5,7.7,10.2-4.4,3.1,9.8,8.9,10.2,16.8,15.4,1.6,1,1.7,5.4,2,5.6,3.1,1.7,6.9-11.4,11.9,9.8.3,1.2-3.9,15.8,6,8.1,1.4-1.1-4.4-7.1-4-9.8.6-4.4,11.3-1.5-.5-11.2,14.5,6.4,9.2-.9,12.7-2.9,14.7-7.9,6.2,2.9,6.7,4.3s13.1,6.1,14.9,6c-1.4-3.5-11.4-5.6-10.1-11,2-8.3,10.5-1.2,12.4-8.5,4.2,10.2,4.9-4.9,12.7,9-3.7-8.3,8.8-14.7,12-10.5s-4.1,12.3-3,14.9c6.6,2,4-4.3,4.5-4.5,1-.3,4.5,4.7,6,3,9-10.7-6.9-2.5-7.5-3-6.7-6.2,10.1-14.6,13.4-5.2.4,1.1-4.2,23.8,7.5.8,2,2.6-5.2,17.4-6,18-4.2,3.4-2.6-10-7.5-7.5,1.1,1.5,3.9,10.9,4.4,11.2,4.6,3.3,2.6-3.4,3-3.7,4-3.2,10.5-8.8,14.7-2.7,7.5,10.9-8.5-1.3-10.2,2.7s5,20.8,7.5,17.9c.7-.8-3.1-11.5.8-11.9,1-.1,13.2,13,2.3,14.9,13.8-3.4,4.4,5.6,4.5,6.5.3,4.8,9.3,15,8.2,8.5s-10.5-18.1,2.2-10.5c-7.8-3.1,2.7-7.7,3.8-7.4s.6,9.8,1.6,11.8c2.2,4.5,14.7,15.7,6.6,20.5-.5.3-14-1.8-7.5,3.6.4.4,7.9-4.4,8.9,3.7.8,7.4-4,11.4-10.4,12,13.1-2.5,3.3,12.8,1.9,19.7s1.6,31.2-12.4,24.5c.8,6.7,17.1,12.7,17.9,13.6s-4.9,20.3,4.5,14.8c3.4-2-3.6-13.8,5.3-7.5,7.6,5.3-1,8.3.7,10.5s3.5-2.1,4.5-.9c2,2.3.8,5.4,1.8,6.7s4,0,4.2.2c.5.7-2.3,15,8.2,2.3.9-1.1-4.7-9.2-5.3-9.8s-13.4-1.1-3.6-3.1c2.7-.5,18.8,7.4,21.3,9.4s0,6.2,2.6,7.1c.5.2,7.7-4.9,10.5-4.4,4.9.8-1.9,5.5-.7,7.5.3.5,8.4-2.9,11.3-3.1s4.6,5.3,6.6,3.1c.3-.3.7-7.2,3.8-7.5,4.1-.4,3.4,6.6,6,7.4s.4-7.5,3-7.4c6.9.3,5,19.7,3.3,24.3-2.6,7.3-6.8,5.3-7.1,5.7-.5.9,3.4,3.2,2.8,5-2.2,6-7.3,11-5.8,19l-5.9-4.5c2,3.1-5.9,11.3-7.5,9.7-9.1-8.6,16.6-15.7,15-21-2.6-8.5-18.5,7.7-19.4,6.7s4.5-7,3-9-5,8.3-7.5,6c-.5-.5-2.1-10.6-6-13.5,3.1,2,6.5-3.8,8.4-4,2.7-.3,20.5,3.1,15.9-6-3.8-7.4-11.2-4.1-16.2-.5s1.1,4.1.8,4.5c-.5.5-14.8,2.3-9,6.1-6.3-4.7-27.5-7.4-35-9.2-9.4-2.3-14.3-1.3-22.3-3s-29.6-14.1-31.1-15.5c-2-1.8.7-4.9,0-5.2-1.2-.5-3.2,3.7-5.2,3-1.6-.5-1-3.5-3.1-4.2-37.4-11.1-31.4-4.1-48.5,20-1.5,2.1-3.6.2-4.5,1.3s2,2.9,1.4,3.8c-.5.7-4.1-2-4.5-1.5-.7,1,2,4.8,1.2,6.4-5.7,11.6-12.8,2.7-14.7,4-.5.3-3.4,9.5-.7,10.5,5.4,2,3.2-3.9,3.9-4.2,12.5-5.6,1.7,4.5,1.3,5.3s-.8,10-6.7,7.8-2.1-11-5.8-3c-2.5,5.5,2,11.9,5.8,10.5,3.1-1.1.5-6.7,4.5-5.9,1.8.4,9.4,14.5,11.8,17.4.7.8,9.9,4.3,10,7.3.1,3-10.7,5.8-4.5,8.2s2.9-6.8,6.7-6c12.5,2.7,26.7,51.4,27.7,63.5,2.5,29.2-12.3,63.8-25.4,89.6-.8,1.5-4.8,1.2-5.5,2.4s1.8,6.5.9,7.6-10.8-1-6,6c1.2,1.7,4-8.4,4.4-2.3-1.9,14.3-11.8,34.5-14.4,46.7-.9,4.3.2,24.9-.5,25.9s-12.2-6.1-13.4,2.3c-1.2,8,7.6-4.5,9-3.8s-.6,3.2.4,4.1,3.5-.3,4.2,1.4c2.8,6.9,7.1,68.4,4.5,70.8-1.8,1.6-4.9-3.4-6-3-.4.1.4,10.2-3.7,1.5-4.8,23.7-5.3,1.5-8.3-1.4-1.2-1.1-7.2,2-9.9-4.1-.2-.4,0-9.1.2-9.5,3.5-4.9,5.3,3.3,6,3,2.3-1.1,3-8.1,2.2-9-1.9-2.2-6.2,4.4-8.2,1.5-7.9-11.4,5.9-17.4,5.4-20.1-1.1-5.4-10.9-7.3-9.1-13.5.3-.9,10.2-3.4,10.3-3.9,1.1-3.8-2.9-7.9-2.8-11,0-1.8,4.5-1.9,4.4-3.1,0-1.1-4.2-2.1-4.3-2.4-.3-1.4,2.4-5.7,1.3-7.3s-6.8,6.9-8.9,4.5c-.8-.9,2.3-12.8,3-13.4,1.4-1.3,3.2,7.8,7.5,3.7-2.9-5.3-8.9-4.2,0-9-2.7-1.3-15.3,4-10.4-5.2.1-.2,4.1.4,4.3,0,1.4-3.9,6.9-21.5.2-11.9-3.7-12,19-10.5,9-20.9.2,9.2-15.5,20-13.5,5.2,1.3-9.5,4.1,8.2,9-4.4-13.6-2.9,9.1-37.3-1.4-9.7,12.1-2,5.3-18.5,6-19.4,2.2-3.1,14.4.5,14.9,0s-1.6-3.9-1.1-5.1c1-2.3,4.8-4.2,4.1-6.1s-5.1,0-6-.8c-1.7-1.4,4.5-5.9,3-7.5-.9-.9-22.2,7.6-11.2-10.5,7.2,1.1-.9,3.5-.8,3.7,5.4,9.9,21.5-2.4,4.5-3.8l4.5-6c-14.9,7-6.8-3.4-6.3-10,.2-2.5-3.8-4-2.7-6.4.3-.6,9.1,2.7,1.5-9l8.9.7c-17-5.4,3.2-19,7.5-15.7.4.3-.9,10.3-2.2,10.4s-4.2-6.5-6-5.9c-5.1,1.7,4.2,6.7,4.5,7.5,1.5,4.1.6,12.2.9,12.8s6.8,1,8.8,9.7c1.1-8.3-3.2-10.4-4.5-14.2-1.7-4.9,6.2,2.5,4.5-3.7-15.3,3.7-3.9-3-3.1-8.4,1.2-7.6-1.5-9.4-1.4-12.6,11.9-3.9,2.4-8.2,1.5-7.5s-1.5,6.5-1.5,7.5c-7.5,2.4-3.6-9.9-3-10.5,2-2,15.4,7.5,10.7-8.4s-12.2-13.1-16.6-9.6c-3.9,3.1,4.7,1.4,1.5,5.3-.6.7-4-1.2-4.5-.8s-.7,13.7-4.5,4.5c-1.7-4.1,6.8-3.8,5.8-9.4s-11.4-4.5-11.8-4c-.7.7,9.2,26.7,0,16.4-.6-.7-.2-17.7-.4-18.5-2.9-10-18.4-30.6-19.7-36.6-.4-2,3.9-23.8-3-6.2-13.2-22.7,7.8-2.7,12.8-8.1,8.2-8.8-16.3,0-13.3-13.4,1.9-8.3,11.1.4,13.2-1s0-5.3,2.3-6,1.6,4.4,3,4.4c14.2.2-.3-7-.7-7.5-3.3-5.1,5.2-3.1,5.9-8.9,13.5-3.9-.7-9.8-5.2-16.4-3.1,5,6.1,10,5.2,16.4-6,1.7-8-.1-12.5-.1s-1.3,5.8-3.9,3.1c-.6-.6-4.5-13.6-6-14.9-6.1-5.1,2.8,10.5,1.5,11.9-5.1,5.9-11.1-14.3-1.5-18.7,4.9-2.3,9.8,1.8,13.8.8,1.8-.4,2.2-4.8,4.8-5.8s18.2,5.2,5.9-1.8c-7.5-4.3-14.6,14.1-19.4-2.9-10,16.4-.7-1.4-.6-2.3,0-2.3-5.2-6-1.6-11.2l-3,1.5c1.5-5.3-5.3-9.9-4.6-14.2.7-3.9,11.4-5.7,7.6-9.7-1.5-1.6-7.8,6.4-12.5,4.4-1.6-.7-3.5-10.7-11.5-12.6-5.2-1.2-10,8.4-13.4,5.2-1-.9,4.2-9-2.2-6-6.2,2.9,4.1,9.5,3.7,11.2s-15.9,16.3-18.7,14.2c-4,11.9-11.7,22.6-19.9,31.8-.9,1.1,1.3,3.3,1.2,3.4-1.4,1.6-3.3-3-4.4-2.3s-6.6,32.3-6,4.5l-4.5,6c-1.7-14.8-9.7,5.3-8.9,6,3,2.7,8.7-4.9,9-4.5,4.7,6.5.6,11-6.8,10-.8,0-3.5-8.5-8-1.3-5.3,8.4,3.9,3,5.7,3.5s.6,9.8,7.7-.9c-1.1,2.8-4.1,23.9-7.4,15.5-.8-2.1,4.5-12.7-2.3-11.8-5.3.7,1.3,12.9.7,13.4s-4.2-2-7.8,1.4c-15.2,14.2,6.8,13.4,6.3,8.3s-10.4-3.6-3.8-5.2c13.7-3.2.2,17.4.7,18.5.9,1.8,5.6.9,6,3.2.1.8-10.2,11.2-10.4,12-.3,1,11.7,13,6,18.7,16.6-11.9,2.3-9.1.5-14.1-2.7-7.5,10.9-6.3,11.5-6.8,2.4-2.1-10.8-10.1-.8-9,5.1.6,5.4,9.3,5.7,9.8,2,3.2,8.9,4.2,2.5,8.1,11.5-2.2-1.9-8.7,0-10.4,5.1-4.5,8.5,7.2,10.4,8.3,4,2.1,8.9-1.2,15,1.5s1.3,5.1,1.5,5.2c3.1,2.4,3.9-4.4,5.2-4.5s28.1,23.1,12.7,25.4c9.5-3.3,9.8,17.4,8.9,22.4,0,.5-4.1-.8-4.5.8-.7,3.1,4.4,2.9,4.6,4.8.5,4.4-3,13.1-3.1,14.7s4.3-1,2,9.5c-6.1,27.2-25.1,44.4-36,65.7-5.1,9.9-15.6,57.8-22.8,58.8.4-2.2.4-7-.7-9-2.2,3.2-5.7,9.8.7,9-1.1,6.6-15.9,29.9-23,28.6-8.1-1.5,0-14.8-.9-19.6s-5.5,1.7-4.5-2.2,9.1-1.1,8.9-3.8l-6-4.4c13.8,1.5,8.7-21.8,16.2-25.6-.2-5.4,1.9-42.9,3.2-44.7.4-.5,7.9,1.3,8.9-6.8-4.5-3.7-9.4,10-9,3,.4-6.9,5.9-17.1,6-18.1.8-8.9-10.4-28.3,4.6-26.7-5.1-2.4-13-2.8-3-6.8-6.5-2.5-4.4-3.6-4.5-10.5l2.9,1.5c2.1-7.2,2.5-10.5-4.4-6-2-9.3,4.5-9,4.5-9.7s-5.3-2.9-6.7-6.7c-2.7-7.4-1.6-16.8-3.7-23s-13.1-9.8-6-12.9c-6,3.1-20.3-14.7-7.5-12.7-1.8-3.8-6.7-.2-7.4-.8-11.2-10.1-.5-49.9-4.2-64.9.9-1.6,20.6-5.5,2.6-5.4,5.2-6.6-.1-6.6,0-8.9s4.3-.8,4.5-2.3-3.5-2.7-3.1-6c1.5-12.8,9.4-27.4,16.8-37.9s5.4.1,5.7-.3-2.7-4.1-1.1-7.1c4.9-9.2,11.1-1.4,11.6-1.9.8-.9-2.6-4.2-.1-8.3,2.2-3.7,23.9-15.8,27.9-21.6-17.8-.7,3.1-5.2,3.7-6s-1.2-12.1,6-15.8c9.3-4.8,1.9,15,8.1,6.8,5.3-6.9-3.4-9.1-3.7-9.8-1.2-2.9,4.5-5.7,4.5-6.2.2-7.3-6.5-12.3-1.5-18.4-7.6,4.1-8.4-7.1-9.1-7.4-.6-.3-9,.3-13.6-2-19-9.4-38.2-17.5-57.2-26.6-2.7-1.3-2.1-5.7-2.4-5.8-1.4-.7-16.2-1.9-23.4-5.8-11.8-6.5-8.8-10.2-9.5-10.7s-3.2,4.2-10.4-3.8c-3.2-3.5-9.7-20.8-10.4-25.5-1.9-13.4,3.3-25.7,1.4-39.5,4.8-1.2,3,13.4,9,4.5,3.4-5.1-5.9-4.8-5.9-8.1,0-7.1,8.2-3.5,8.9-3.9,3.7-2.2-8.2-15.3,6-26.9-.3.6.8,3.9,1.5,4.5-1.3.8-7.3-1.8-6,2.2.7,2.2,13.5,8.5,14.9,1.5.9-4.5-5.2-.2-9-3.7,5.1-3.1,9.3-7,13.5-11.2-1.7-.4-7.5,1.6-9,2.3.5-.8-.5-5.5,0-6s7.9,2.9,11.2-3c-19.4,3.2,8-9.7,9.7-11.2s5.5-12.9,8.3-11.2c.6.4-1.2,7.6,6,10.1,10,3.5,2-4.4,2.2-4.9,2-3.7,10.5,3.7,10.4,4.5-.4,5.7-14.5,2.8-14.9,4.5-.8,3.1,7.3,3.7,4.5,8.2-1.7,2.6-7.6-3.3-9.1,5.1-.1.7,3.3,1.1,3.1,1.6-1.3,3.7-12,15.5-11.9,6,0-.9,9.9-5.1,0-14.2,1,8.7-6.9,4.3-7.5,5.2-2.7,3.9,14.4,5.8,4.5,15.1-1,1-4.3-1.2-4.6-.9,13.2-13.3-13.1-2.2-1.5,1.5-6.6,8.1,3.2,4.2,3.7,4.5.8.4-3,10.9-3.9,13.4-.2.5-4.2,0-4.3.1-.6,1.5,3.1,20-7.5,17.9,10.2-18.5-28.2,3.7,3,5.3-22.1,9.4,3.7,5.2-5.9,20.2,11.1-17.1,6,12.3,9,20.2,10.5-6.3,3.9,3.3,4.4,3.7s6.7-.6,7.5,0-2.1,4.9-1.5,6c2,3.5,5-3.2,5.2-3,2.5,1.9,1.8,6.1,3,6s1.8-4.6,3-4.5c1.1,0,11.2,14.5,13.5,14.9,4.2.8.9-4.1,3-4.5,2.9-.5,15.2,7.3,20.2,6-2.3,5.7-4-.7-7.9.1-13.7,2.9,5.8,5.3,6.4,5.9,3.3,2.6-4.5,3.1-3,4.4,8.3,7.3,5.3-7.3,10.4-7.5-.3,10.9,4,5.2,4.5,6s-2.4,14.1,3,6c.6-.9-2.7-16.2,3-12,3.4,2.5,1,11.6,1.5,12s12.7-.6,7.5,4.5-4.9-5.6-7.4-.7l8.2,3.8c1.2-3.3,9.8-33,12.7-23.2s-4.6,0-3,3c1.9,3.5,17.4,8.6,3,11.2-1-1.6,2.4-7.2-3-6-.1,1.8-2.4,6.3-1.5,7.5s3.1-1.2,4.5-1.5c2,3.3,6.7,8.6,7.3,10.1,1,2.7-2.2,8.3-1.3,9.4s8.7-2.6,9-3c1.1-1.8-7.5-7,3.8-9s.8,3.2,1.5,3c7-1.4,4.5-8,14.2-1.5-16.6,4-3.2,5.9-3,6.7.3,1.2-4.2.4-4.5,5.2-1.5.9-10.8,3.1,0,1.5,2.3,10.1,9.3-.5,13.5,1.5s-.4,3.5.3,4c2.4,1.8,6.8,1.5,7.2,5.7s-15.7,15.5,2.9,12.7c-12.2-13,.9-6.9,1.5-7.5,5.8-5-8.7-13.4-9-14.3-2.4-5.9,8-2.7,5.3-8.2-3.5-7.3-3.6,1.1-4.7,1.6-4.2,1.9-12.2,3.7-17,4.4,0-.4,0-1,0-1.5,4.2-2.4,6-4.4,7.4-5.3s4.3,1.5,5.8.6,9-7.5,9.2-8.1c.6-1.2-2.9-.3-3.1-1.6s1.9-4.7,1.6-5.1-11.7-2.9-7.5-7.5c1.4-1.5,18.6,8.6,21.5,12.1,2.6,3.1,3.3,6.4,3.9,10.3-.7.6-5.8,1-6,4.5h9c0-.7-1.6-2.8-1.5-3s2.5.5,3.1-.9-1.7-4.2-1.7-5.7,3.2-.8,3.1-1.5c-2.3-10.3-9.4-6.3-11.6-8.6s-3.1-9.5-4.9-11.6c-3.1-3.7-.7,4.8-5.2,3.7-6.3-1.5-2.2-6.2-3.7-6.7s-4,5.1-6.7,4.5-.5-7.4-5.3-6c6.7,12.7-9.9-.7-12,1.5s4.1,12.3-.8,13.4c-.5.1-1.7-4.9-3.6-6.9-2-2.1-6-1.8-6.2-2.1-.5-.8,3.3-4.8,3-5.9s-4.5.2-4.5,0c-.9-6.6,4.3-16.8,9.8-20.9,3.9-.6.2,4.4.7,7.5-1.6,1.4-7.5-3.6-3,9,4.7,1.6,2.5-4.3,3-4.5s16.2.9,9-4.5c-3.1-2.3-7.7,6.8-9,0,13.8-11.7,3.6-7.6,2.9-9.7-1.5-4.9,3.1-14.7,5.9-7.2,1,2.7-4.3,7.4,1.7,6.5-1.9-9.3,3.7-4.3,6.8-7.4,8.4-8.1-2.3-10.8-2.3-12.8,0-6.1,8.4,3.5,7.4-1.5-7.6-14.7-9.8-.2-13.4-3.8-3.5-3.4-.9-15.9-1.5-16.4-3.2-2.9-4.2,6-13.5-1.5,1.7,1.8,6.4-.5,4.5-4.5l-2.9.8,4.4-14.2c-6.4,1.2-9,14.8-6,18ZM534.8,301.6c-15.2,5.9-1.3,17.9,1.5,10.4.8-2.2-3-4.9-2.9-5.2.6-2.5,11.8-2.3,3-5.2-1.2-.4-.2-.5-1.5,0ZM525.8,312.1c1.4-1.8-2.7-5.8-4.5-4.5-2.6,2,2.4,7.1,4.5,4.5ZM732.3,321.1c-.3-.2-4.3-.1-4.5,0-2.7,1.9,7.1,1.8,4.5,0ZM735.3,331.5c.5-.6-.9-1.6-1.5-2.2-3.5-2.3-.9,5.1,1.5,2.2ZM720.3,334.5c2.3,2.3,6.3-4.7,2.2-4.4-1,0-3.1,3.6-2.2,4.4ZM630.6,339c-.1-.2-2.7-.6-3,.8-1,4.4,5.3,2,3-.8ZM509.2,342.3c-8.2-6.1-6.6,12.3,1.7,5.7s-1.5-5.5-1.7-5.7ZM503.4,351c-1.5-1.3-11.4,8.6-9,10.5,1.8,1.4,9.5-10,9-10.5ZM635,351c-1.8-2.1-7.4,4.2-2.2,6,3.5,1.2,2.4-5.7,2.2-6ZM697.9,355.5c3.7-6.2-8-3.6-11.2,0-2.7,3,5.6-.7,3.7,4.5l-7.5,7.5c20,4.3,9-6.6,10.6-11.9.1-.4,4.2.1,4.3-.1ZM720.3,351c-3.6.4-11.3,8.8-7.5,10.5s7.8-8.2,7.5-10.5ZM621.6,352.5c-2-2.6-7.1,2.4-4.5,4.5s5.8-2.7,4.5-4.5ZM642.5,354c-2.8-3.6-9.3,14-8.9,16.4,4.2-10.6,4.1,0,9,.7,8.7,1.2.8-3.9.3-6.3-.6-2.8,0-10.4-.3-10.9ZM671,355.5c-4.1-2.2-4.2,5.8-4.5,6-3.4,2.4-3.8-6.7-7.4-4.5-2.5,1.6,5.1,3.8,3,7.5-.3.6-5.7-1.6-4.5,2.2,2.3,7.1,18.2-8.6,13.4-11.2ZM510.9,357c-3.4-2.6-3.3,2.9-.7,3s.9-2.9.7-3ZM657.5,361.5c-.3-.5-10.2-5.1-10.5-4.5-5.3,10.5,13.2,10.2,10.5,4.5ZM721.8,363c0-.1-3-.6-3,.7.1,2.6,5.6,2.7,3-.7ZM678.4,364.5c-2.1-1.3-6.9,1.8-7.5,4.5,2.2.9,10.7-2.4,7.5-4.5ZM717.3,364.5c-.9-.9-5.9.6-5.9,2.2-.2,4.4,8.8.5,5.9-2.2ZM632.1,366h-3v1.5h3v-1.5ZM647,374.9c1.5,1.6,9.8-7.2,3.7-7.4-.9,0-4.8,6.3-3.7,7.4ZM657.5,369c-.1-.2-2.7-.6-3,.8-1,4.4,5.3,2,3-.8ZM667.2,370.4v1.5l.7-.7-.7-.7ZM711.3,370.5h-3v1.5h3v-1.5ZM487.7,371.9v1.5l.7-.7-.7-.7ZM650,380.9c.4.5-.7,3.9,1.4,5.3,10.6,7.4,5.6-6.3,6.1-6.8s9.8,6.3,5.9-7.5c-5-1.3-1.6,3.6-3.8,4.6s-5.7-.9-8.1,0,1.4,3.9-1.6,4.3c-.8-1.1-.1-5.5-4.5-4.5-.6,2.9,1.9,4.8,4.5,4.5ZM690.4,372c0-.1-3.1-.6-3,.7-.3,3,.4,2.9,2.3.7.6-.4,1-1,.7-1.5ZM669.5,380.9c3.1-1.1,5-4.2,4.5-7.5-1.6,1.7-4.2,5.1-4.5,7.5ZM684.4,373.4c-5.7-2.8-2.6,8.8,1.5,4.5.2-.2-1.3-4.4-1.5-4.5ZM642.5,376.4c-2.3-2.4-5.4,4.6-4.5,6s7.2-3,4.5-6ZM669.4,382.4c-6.4-5.7-12.2,6.6-2.2,11.9.5-1.6,2.7-11.5,2.2-11.9ZM487,385.4c-.3-.2-4.3-.1-4.5,0-2.7,1.9,7.1,1.8,4.5,0ZM671.7,388.4v1.5l.7-.7-.7-.7ZM659,403.4c-2.5-2.8-7.1,1.6,0,4.5-.1-1.2.3-4.1,0-4.5ZM510.9,430.3c8.3,6.1,1-9.9-1.6-12.6s-7.2-2-7.4-2.4c-2.5-4,7.6-4.1,6-5.9s-9.5,1.8-11.9-4.5c-1.1,10.1,5.9,12,8.9,15.8s-1.5,3.5-1.4,3.6c-7.1-3.7-12.6.4-7.5,6,1.5,1.7,1.7-4.9,5.2-4.5.3,0,2,2.8,5.2,4.5.4.2,2.6,6.2,8.2,4.5,1.9-.7-3.1-4-3.7-4.5ZM489.9,406.4c-4-4-4,8.5,0,4.5.2-.2.2-4.3,0-4.5ZM656,410.9c-2.8-4.9-31.9,10-1.5,10.4-16.4-5.4,3.9-6.3,1.5-10.4ZM519.9,427.3c-.1-.2-2.7-.6-3,.8-1,4.4,5.3,2,3-.8ZM526.6,430.3v1.5l.7-.7-.7-.7ZM543.8,439.3c-6.2,4-9.9-12.2-12-5.2-2.1,6.9,9.2,11.1,12,5.2ZM527.3,434.8c-2.3-1.2-5.7,2.9-4.5,4.5s7.4-2.9,4.5-4.5ZM629.1,436.3c-5.3-6.6-6.3,14.4-.7,6,.8-1.2,1.3-5.3.7-6ZM739.8,442.3c.3-.5-.7-6.3-3-6-1.2,2.3.8,9.4,3,6ZM548.3,440.8c-2.3,2.3,4.7,6.3,4.4,2.2,0-1-3.6-3.1-4.4-2.2ZM532.6,442.3v1.5l.7-.7-.7-.7ZM716.6,442.3v1.5l.7-.7-.7-.7ZM555,446.8v1.5l.7-.7-.7-.7ZM724.8,454.2c.2-.3-.9-7.8-3-7.5-2.8,4.1,0,11.7,3,7.5ZM738.3,446.8c-1.7-2.5-4.3,2-3,4.5,1.9-.2,3.9-3.1,3-4.5ZM702.4,451.3c-16.4.7,4.2,24.8-.2,6.9-1.2-4.9-8.3,1.3.2-6.9ZM676.9,452.8h-3v1.5h3v-1.5ZM657.5,454.3c-.8.8,2.4,8.9,3.7,8.9,5.5,0-.9-12.1-3.7-8.9ZM691.1,457.3c-2.2,0-2.2,4.4,0,4.4s2.2-4.4,0-4.4ZM731.5,457.2v1.5l.7-.7-.7-.7ZM607.1,462.8c-10.9-8.4-.3,11.2,4,2.6s-2.8-1.8-4-2.6ZM582.7,463.2v-3h-1.5v3h1.5ZM756.2,464.7v2.2c-9.8-11.8-52.5-4.4-53.4,9.2l19.7,84.4,30.7,7.4c.8,2.4-3.5.9-3.1,2.3,7.9,23.9,3.9-14.6,16.5-3.8-8.6-11.9,8.6-31.8,10.3-42.6s-1.7-38-2.8-40c-.8-1.6-11.3-8.1-13.6-10.9-2.2-2.7,2.4-8.6-4.3-8.3ZM668,466.2c-3.1-7.2-4.1,2.7-4.5,3-.7.5-3.9-2.2-4.5-1.5-7.3,9,11.9,5.4,9-1.5ZM620.1,487.2c7.7-.5,12.2-14.9,8.2-20.9-.5,4.1-11.5,12.1-11.2,14.2.2,1.3,10.1-3,3,6.7ZM597.6,467.7c-.1-.2-2.7-.6-3,.8-1,4.4,5.3,2,3-.8ZM605.1,469.2c-3.1-3.1-3,2-1.5,4.5,2.4.7,1.6-4.3,1.5-4.5ZM764.4,469.2v1.5l.7-.7-.7-.7ZM691.9,475.2c.5-.7-3.8-5-4.5-4.5-2.7,1.9,2.5,7.2,4.5,4.5ZM612.6,472.2c-1.4-2.5-5.3,3.3-4.5,6,1.8-.5,5.6-4,4.5-6ZM681.4,473.7h-3v1.5h3v-1.5ZM603.6,478.2v-3h-1.5v3h1.5ZM662,478.2h-3v1.5h3v-1.5ZM687.4,478.2c-.1-.2-4.4-.6-4.5.7-.2,3,5.7,1.4,4.5-.7ZM669.5,482.7c1.1-1-4.4-4.5-6-3s4.4,4.5,6,3ZM678.4,482.7v-3h-1.5v3h1.5ZM644.8,481.2c-.3,0-3.7,3.4-3.7,3.7,0,5.9,9.6-3.7,3.7-3.7ZM639.5,488.7c-.3-1.5-5.4-6.5-6-6-2.6,2,2.5,7.1,6,6ZM627.6,493.2c6.8,4.8,2.6-12.2-1.5-7.5-.2.3,1.2,7.2,1.5,7.5ZM667.2,488.7v1.5l.7-.7-.7-.7ZM792.1,491.7v-3h-1.5v3h1.5ZM645.5,490.2c-3-5.1-4.6,8.8-.7,9s1.1-8.4.7-9ZM684.4,493.1c.5-.6-.9-1.6-1.5-2.2-3.5-2.3-.9,5.1,1.5,2.2ZM668,493.2c-1.1-1.2-5.3,2.1-4.5,3,1.2,1.2,5.3-2.1,4.5-3ZM633.6,508.1c1.1-1.3-5.1-18.9-10.5-11.9s3.7,1.6,4.3,3.9c2.9,11.5-5.3,2.4-5.8,9.5,1.8-.3,11.6-1,12-1.5ZM796.6,497.6v-3h-1.5v3h1.5ZM673.9,499.1v-3h-1.5v3h1.5ZM634.3,497.6v1.5l.7-.7-.7-.7ZM645.5,502.2c0-.1-3.1-.6-3,.7-.3,3,.4,2.9,2.3.7.6-.4,1-1,.7-1.5ZM668,502.2c-.3-.2-4.3-.1-4.5,0-2.7,1.9,7.1,1.8,4.5,0ZM673.9,502.1c-.1-.2-2.7-.6-3,.8-1,4.4,5.3,2,3-.8ZM780.1,502.1c-3.6-3.1-3.6,4.5-.7,4.5,1.3,0,.9-4.3.7-4.5ZM660.5,508.1c-.8-3.6-9.4-5.2-8.9-2.2.4,2.6,6.8,2.5,8.9,2.2ZM798.1,503.7c-.2-.2-5.9-.6-6,.7-.3,4,7.8.8,6-.7ZM674,508.1c-1.1,2.7,2.6,6.2,4.5,2.2,2.5-5.4-4.3-2.6-4.5-2.2ZM656,514.1c1.7-4.8-15.7-6.6-16.4-6s3.4,4.4,3,6.7-3.9-1.6-4.5-.7c-.4.7,2.8,16.7,6,12,1.1-1.6-8-17.1,12-12ZM668,517.1c2.3-2.7-3.8-11.4-6-9-1.2,1.3,3.7,11.6,6,9ZM781.6,508.1c-.3-.2-4.3-.1-4.5,0-2.7,1.9,7.1,1.8,4.5,0ZM789.1,512.6c2.1,1.2,3.7-4.7.7-4.5s-.9,4.4-.7,4.5ZM633.5,512.6h-3v1.5h3v-1.5ZM625.3,515.6v1.5l.7-.7-.7-.7ZM789.1,520.1c.6-.6-3.9-5-4.5-4.5-1.6,1.5,3,6,4.5,4.5ZM633.5,518.6c-.1-.3-4.7-1.7-6-.8-8.7,6.2,9.2,7.3,6,.8ZM647.8,517.1v1.5l.7-.7-.7-.7ZM658.2,517.1v1.5l.7-.7-.7-.7ZM691.9,517.1h-3v1.5h3v-1.5ZM798.9,518.6v1.5l.7-.7-.7-.7ZM784.6,524.6c-.5-1.8-4-5.6-6-4.5-2.5,1.4,3.3,5.3,6,4.5ZM649.3,521.6v1.5l.7-.7-.7-.7ZM667.9,524.6v-3h-1.5v3h1.5ZM789.9,521.6l.8,2.2.8.7v-1.5l-1.5-1.5ZM638,524.6c-5.1-4.5-9.8,14.1-1.5,13.5.3,0,1.1-5.5,3-4.5,2.3,1.2-.8,10.1,1.3,12.8,3.5,4.4,10.8-.8,12.1.6,1.2,1.2-2.7,8.8,3,7.5,3.7-14.5-12.4-7.6-13.3-11.2-1.2-4.8,6.5-7.6,5.1-11.3-2.3-6.1-8.4,3.7-12.7,1.5s5.3-6.8,3-9ZM656,527.6c0-.3-5.8-3.3-6-3-5.1,6.1,7.1,8.1,6,3ZM684.4,524.6c-4-4-4,8.5,0,4.5.2-.2.2-4.3,0-4.5ZM780.1,529.1c2.6-3.4-2.9-3.3-3-.7s2.9.9,3,.7ZM615.6,527.6c-.3-.2-4.3-.1-4.5,0-2.7,1.9,7.1,1.8,4.5,0ZM790.6,527.6c-4-4-4,8.5,0,4.5.2-.2.2-4.3,0-4.5ZM627.6,532.1c-1.5-5.1-7-2.5-4.5,0s3.3-.1,4.5,0ZM621.6,530.6c-5.6-3.6-4.6,5.1-2.9,6,3.7,2.1,4.9-4.8,2.9-6ZM693.4,532.1h-3v1.5h3v-1.5ZM677,538.1c2.1,1.2,3.7-4.7.7-4.5s-.9,4.4-.7,4.5ZM663.5,542.5c1-1,0-8.3-3.7-7.5-5.9,1.4.5,10.9,3.7,7.5ZM632.1,541c.3-.7-3.5-5.2-4.4-3.7s3.2,6.5,4.4,3.7ZM667.9,551.5c.7-.3,5.7-11.2,4.5-13.5-3.6,8.1-10.1,5.4-10.4,6-1,1.5,2.8,8.8,5.9,7.5ZM775.7,538.1c-4-4-4,8.5,0,4.5.2-.2.2-4.3,0-4.5ZM620.1,541.1c-2.5-1.4-5.7,3.9-5.2,5.9.5-1.1,8.3-4.3,5.2-5.9ZM678.4,544v-3h-1.5v3h1.5ZM790.6,541.1c-.3-.2-4.3-.1-4.5,0-2.7,1.9,7.1,1.8,4.5,0ZM688.9,542.6c0-.1-3.1-.6-3,.7-.3,3,.4,2.9,2.3.7.6-.4,1-1,.7-1.5ZM786.1,547.1c-.2-.4-8.6-4.9-8.9-4.5-3.5,3.5,12.8,11.7,8.9,4.5ZM627.6,545.6c0-.1-3.1-.6-3,.7-.3,3,.4,2.9,2.3.7.6-.4,1-1,.7-1.5ZM593.9,547v1.5l.7-.7-.7-.7ZM605.1,548.5c-.8.2-2.1-2.3-3-.8.9,1.2,4.7,7.7,5.9,6.8s-1.4-3.7-1.5-4.5,2.2-2.1,1.5-3c-.7-.8-2.5,1.4-3,1.5ZM682.8,547.2c-7-4.1-2.8,3.5,0,5.8-21.6,1.7,2,6.6,4.5,4.5s-4.1-10.1-4.6-10.3ZM699.4,547c-4.4-3.1-2.2,5.6-1.5,6,2.3,1.3,3.1-4.8,1.5-6ZM774.2,550c2.6-3.4-2.9-3.3-3-.7s2.9.9,3,.7ZM632.1,550c-1.8-1.8-6,3.2-4.5,6,1.7-.2,5.8-4.6,4.5-6ZM622.3,553v1.5l.7-.7-.7-.7ZM672.4,556c-.3-.2-4.3-.1-4.5,0-2.7,1.9,7.1,1.8,4.5,0ZM780.1,560.5c1.5-1.5-2.9-6-4.5-4.5-1.5,1.5,2.9,6,4.5,4.5ZM602.9,557.5v1.5l.7-.7-.7-.7ZM624.6,557.5c-3.6-3.9-4.8,9.9,6,6-8.7-1.3-5-4.9-6-6ZM642.5,557.5c-1.5.2-5.5-.4-6,0-.9.8,4.5,9.7,6,0ZM651.5,563.5c2.7,2.9,6.6-6.2,2.2-5.9-1.6,0-3.1,5-2.2,5.9ZM663.5,563.5v-3h-1.5v3h1.5ZM687.4,562c-2.8-3.6-9.4,5.4-8.9,5.9,4.1,5,9.4-5.4,8.9-5.9ZM717.3,560.5c-4.6-.7-6.7,1.4-6,6l6-6ZM786.9,560.5v1.5l.7-.7-.7-.7ZM702.4,568c1.4-1.8-2.7-5.8-4.5-4.5-2.6,2,2.4,7.1,4.5,4.5ZM593.2,565c-3.6-3.1-3.6,4.5-.7,4.5s.9-4.3.7-4.5ZM724.8,565c-2.3,2.3,4.7,6.3,4.4,2.2,0-1-3.6-3.1-4.4-2.2ZM611.1,566.5c-.2-.2-4.3-.2-4.5,0-4,4,8.4,4,4.5,0ZM662,566.5c-.4-.3-7.3-.5-7.5.7-.6,4.3,14,3.9,7.5-.7ZM786.1,566.5c-5.6-1.4-8.1,2.4-9,7.5l9-7.5ZM585.7,572.5c4.9-5.4-4.9-4.4-4.5-.7.1,1.3,4.3.9,4.5.7ZM600.6,568h-3v1.5h3v-1.5ZM721.8,568c-3.2-4.4-6.6,10-6,10.5s6.1-2,8.9-1.5c.5,0-1.4,5.8,2.2,4.4,13.6-5-6.3-5.5-6.7-6-.9-1,2.4-6.2,1.5-7.5ZM736.8,568c-1.6-1.6-7.6,4.4-6,6,1.6,1.6,7.6-4.4,6-6ZM644.8,569.5v1.5l.7-.7-.7-.7ZM694.9,569.5c-.4-.4-10.4,4.7-10.4,5.2,0,6.5,14.1-1.3,10.4-5.2ZM700.9,580c2.4,2.4,9.1-7.7,7.5-10.5-2.2.5-8.7,9.2-7.5,10.5ZM673.9,571c-2.4-3.1-7.7,4.3-6,6,2.2,2.2,8.3-3,6-6ZM677.7,571v1.5l.7-.7-.7-.7ZM570,572.5v1.5l.7-.7-.7-.7ZM588.7,574c-4-4-4,8.5,0,4.5.2-.2.2-4.3,0-4.5ZM775.7,574c-.2-.2-4.3-.2-4.5,0-4,4,8.4,4,4.5,0ZM597.6,575.5c-1.4-.9-4.3,1.1-4.5,3,2.5,1.4,7-1.3,4.5-3ZM694.9,578.4c2.2.5,3.2-.7,4.4-2.2-1.4-.3-5.1.6-4.4,2.2ZM611.1,577c-.3-.2-4.3-.1-4.5,0-2.7,1.9,7.1,1.8,4.5,0ZM617.9,577v1.5l.7-.7-.7-.7ZM736.8,577h-3v1.5h3v-1.5ZM745.7,577c-.3-.2-4.3-.1-4.5,0-2.7,1.9,7.1,1.8,4.5,0ZM763.7,577c-.2-.2-5.9-.6-6,.7-.3,4,7.8.8,6-.7ZM781.6,581.4c6.8-5.5-10.8-3.8-6,0s5.7.2,6,0ZM600.6,582.9c.2-.1.6-4.5-.7-4.5-2.9,0-2.9,7.6.7,4.5ZM678.4,582.9c.2-.3.1-4.3,0-4.5-1.9-2.7-1.8,7.1,0,4.5ZM580.5,580v1.5l.7-.7-.7-.7ZM711.3,580c-2.4-2.4-6.8,2.1-4.5,4.5,2.4,2.4,6.8-2.1,4.5-4.5ZM733.8,584.4c3.9-7-9.7-2-6,1.5s5.8-1.2,6-1.5ZM766.7,582.9v-3h-1.5v3h1.5ZM670.9,581.5c-3-3.3-8.8,1.6-4.5,7.5,4.4,1.6,4.8-7.1,4.5-7.5ZM681.4,581.5c-.7.4-2.2,7.6.7,7.4,3.6-.2,4.3-10.2-.7-7.4ZM701.7,591c-4.5-7.8-5.1-10.2-14.3-9.6-1.2,6.1,5,.4,6,1.5s-.8,4.7.2,5.9,4.1-.2,4.3,0c2.4,3.2-7.5,4.9-4.5,7.5s11.5.4,12,0-3.1-4.5-3.6-5.4ZM715.8,585.9c2.1,1.2,3.7-4.7.7-4.5-1.3.1-.9,4.4-.7,4.5ZM742.8,585.9c1.4.1,3.8,4.3,6,3,.6-.3,0-10.7-6-3-6-.6-5.4,5.4-9,10.5,5.3,0,6.9-7.8,9-10.5ZM608.1,587.4c-1.5-5.1-7-2.5-4.5,0s3.3-.1,4.5,0ZM703.1,584.5v1.5l.7-.7-.7-.7ZM724.8,587.4c2.6-3.4-2.9-3.3-3-.7,0,1.3,2.9.9,3,.7ZM759.2,584.5c-.1-.2-5.3-1.3-4.5,2.2,1,4,6,.5,4.5-2.2ZM769.7,586c-.3-.3-8.6-1.9-8.9-1.5-6.6,6.9,17.6,9.6,8.9,1.5ZM599.1,586c-3.4-1.5-6.2,13-5.2,13.4,5.9,2.6,1.9-3.1,2.8-4.4s9.1-6,2.3-9ZM576.7,590.4v-3h-1.5v3h1.5ZM715.9,587.5c-.6.3-1.8,6.2.7,5.9,3.1-.3,1.2-7-.7-5.9ZM679.9,596.4c4.2-3.9-6.2-10.3-14.3-3.1-10.5,9.3,3.5,3.4,6,3,12.6-1.8-11.3,5.7,2.3-1.4,1.6-.8,5.6,1.9,6,1.5ZM688.9,588.9c-.2-.2-4.3-.2-4.5,0-4,4,8.4,4,4.5,0ZM780.9,588.9v1.5l.7-.7-.7-.7ZM712.8,596.4c.7-4.6-1.4-6.7-6-6l6,6ZM725.6,590.4v1.5l.7-.7-.7-.7ZM794.4,590.4v1.5l.7-.7-.7-.7ZM757.7,593.4c-.1-.2-2.7-.6-3,.8-1,4.4,5.3,2,3-.8ZM774.2,600.9c1.5,1.7,5.9-7,3-7.5-2.6-.4-3.8,6.5-3,7.5ZM795.1,593.4c-4-4-4,8.5,0,4.5.2-.2.2-4.3,0-4.5ZM590.2,594.9h-3v1.5h3v-1.5ZM691.9,596.4c0-.3-5.2-2.1-5.9.7,1.6,3.7,6.4,1.7,5.9-.7ZM730.8,597.9c-1.5-5.1-7-2.5-4.5,0s3.3-.1,4.5,0ZM766.7,596.4c-2.8-1.8-7.7,2.8-6,4.5,1.2,1.1,8.8-2.6,6-4.5ZM707.6,597.9v1.5l.7-.7-.7-.7ZM720.3,597.9c-.1-.2-2.7-.6-3,.8-1,4.4,5.3,2,3-.8ZM747.2,600.9v-3h-1.5v3h1.5ZM781.7,602.4c2.7,1.5,6.2-3.5,2.2-4.5s-2.4,4.3-2.2,4.5ZM700.9,602.4c1.9-1.6-6.3-4.7-6-.7,0,1.3,5.7.9,6,.7ZM585.7,602.4c-.4-.5-11.5-1.4-13.5-1.5,8.4,5.8,13.7,2.9,12,16.4,7.8-5,.4-8.6-.1-9.9s2-4.5,1.6-5ZM687.4,608.4c4.2-4.3-8.8-6.7-10.4-7.5.9,1.4,8.2,9.7,10.4,7.5ZM799.6,600.9h-3v1.5h3v-1.5ZM565.5,602.4v1.5l.7-.7-.7-.7ZM665,602.4c-3.4,3,10.7,9,10.4,3.7s-10-4.1-10.4-3.7ZM704.1,605.7c2.9-.9,6.7,1.4,7.2.5,1.5-3.2-12-5.7-10.4,3.7,2.1.1,2.5-4,3.3-4.2ZM696.4,603.9c-.1-.2-2.7-.6-3,.8-1,4.4,5.3,2,3-.8ZM804.1,605.4c-1.4.5-4.1-1.9-4.5-1.5-2.4,2.6,3.9,5.3,4.5,1.5ZM575.2,611.4c1.4-1.8-2.7-5.8-4.5-4.5-2.6,2,2.4,7.1,4.5,4.5ZM549,608.4v1.5l.7-.7-.7-.7ZM678.4,611.4v-3h-1.5v3h1.5ZM668,609.9c0-.1-3-.6-3,.7.1,2.6,5.6,2.7,3-.7ZM816,609.9h-3v1.5h3v-1.5ZM840,609.9c-3.7,1.7-10,14.2-5.2,16.5,3.3,1.5,1.7-4,3.6-5.3,1.8-1.2,5.4-.3,6.1-.7,2.2-1.4-7.6-6.4-4.5-10.5ZM687.4,621.9c11.3-2-.5-13.5-4.5-10.5s6.7,6.8,4.5,10.5ZM700.9,611.4c-3.4-1.5-6.2,10.9-3.7,11.9,4.4-2.9,4.1-7.2,3.7-11.9ZM575.2,617.4c-1.7-8.6-20,.3-14.9,3,.7.4,9.8-7.7,14.9-3ZM793.6,614.4h-3v1.5h3v-1.5ZM544.6,615.9v1.5l.7-.7-.7-.7ZM810.1,615.9c-.3-.2-4.3-.1-4.5,0-2.7,1.9,7.1,1.8,4.5,0ZM824.9,623.2c2.4-8.5-8.3,2.7-11.8-1.3,2.3,5.4,10.4,6.3,11.8,1.3ZM572.2,620.4h-3v1.5h3v-1.5ZM685.7,622.2c-3.3-1.1-6,.5-5.7,4.2,11.4-5.4-.1,12.2,16.4,10.5,1.4-4.7-4.8-3.3-6-4.5-1-1,6-3,3-6-.2-.2-2.4,1.4-5,0-1.6-.9-2.3-4-2.7-4.1ZM854.9,621.9c-.4-.4-11.7,1.4-10.5,6,6.4-1.6,6.3-1.9,8.2,4.5,1.7-1.1,2.6-10.1,2.2-10.5ZM883.3,629.3c1.6-2.9-4.1-9.4-6-7.5-.4.4,3.8,7.4,6,7.5ZM550.5,623.4c-2.6,0-2.6,5.9,0,5.9s2.6-5.9,0-5.9ZM564,623.4v1.5l.7-.7-.7-.7ZM579,623.4v1.5l.7-.7-.7-.7ZM662,623.4c-3.5-4.4-6.9,5.9-2.2,5.9,1.5,0,3.1-4.8,2.2-5.9ZM828,626.3v-3h-1.5v3h1.5ZM669.4,630.8c1.1-1.1-.5-6.7-3.7-6-5.5,1.2.8,8.9,3.7,6ZM841.5,630.8c1.2-1.1-2.1-5.3-3-4.5-1.2,1.2,2.1,5.3,3,4.5ZM563.2,635.3c1.2-2.3-2.9-5.7-4.5-4.5-.4.3,2.9,7.4,4.5,4.5ZM884.8,636.8c-.3-2.2,1.3-6.4-1.5-6,.3,2.2-1.3,6.4,1.5,6ZM673.9,635.4h-3v1.5h3v-1.5ZM554.3,636.8c-.2-.2-6.2-1.6-6,2.2.3,5.8,9.5,1.9,6-2.2ZM869.9,641.3c-4.5,1.4-14.6-4.7-11.9,2.2.9,2.4,13.7,2.2,11.9-2.2ZM878.9,644.3c1.8-1.6-3.3-6.4-6-4.5s5.6,4.8,6,4.5ZM545.3,665.3c11.5.6,5.6-15.5,3.7-22.4l-3.7,22.4ZM540.8,648.8c.2-.3.1-4.3,0-4.5-1.9-2.7-1.8,7.1,0,4.5ZM658.2,659.3v1.5l.7-.7-.7-.7ZM666.4,665.3v-3h-1.5v3h1.5ZM540.8,668.3c-1.1-1.2-5.3,2.1-4.5,3,1.2,1.2,5.3-2.1,4.5-3ZM681.4,680.2c2.2,3.1,14.7-.5,3.7-10.6-5.8-5.3-16,4.8-11.2,7.6,4.9,2.7,2.8-8.7,5.9-7.5s1.2,10,1.5,10.5ZM688.2,668.3v1.5l.7-.7-.7-.7ZM546.1,669.8v1.5l.7-.7-.7-.7ZM542.3,674.2c-3.1-5-3.8,16.6,4.5,10.5.5-.3-4.2-10-4.5-10.5ZM692.6,674.2v1.5l.7-.7-.7-.7ZM672.4,677.3c-3.5-5-7.2,4.7-8.9,6.7,1.4,0,10.9-3.8,8.9-6.7ZM552.8,680.3h-3v1.5h3v-1.5ZM700.9,680.2c-2.3-2.2-8.9.7-6,6s9.5-2.6,6-6ZM685.9,684.7c-.4.3-1.9,8.6.7,8.9,8.5,1.1,2.8-11.6-.7-8.9ZM675.4,692.2c1.5-2.8-2.7-7.8-4.5-6-1.3,1.3,2.7,5.8,4.5,6ZM552.8,695.2c1-.9-2.6-8.8-6-7.5-.7.3,1.7,11.6,6,7.5ZM672.4,695.2c1.5-1.4-4.8-7.4-5.2-7.4-4.6,0,.4,11.9,5.2,7.4ZM696.4,695.2c1.6-4.3-7.6-1.5-4.5,1.5s4.4-1.3,4.5-1.5ZM678.4,693.7c-.1-.2-4.5-.6-4.5.7,0,2.9,7.5,2.9,4.5-.7ZM541.6,695.2v1.5l.7-.7-.7-.7ZM691.1,708.1c-.2-2.3-5.7-5.3-1.4-9.8-2.4,9.8-9.7.7-11.2,5.2-1,3,6.1,1.9,8.6,5.6.8,1.2-2.3,7.1,1.1,7.1,5.7-.1,3-7.5,2.9-8ZM709.1,698.2v1.5l.7-.7-.7-.7ZM700.9,699.7c-2.5-2.4-5.3,4.8-4.5,6,3.5,4.7,4.9-5.6,4.5-6ZM708.3,704.2v-3h-1.5v3h1.5ZM674.7,704.2v1.5l.7-.7-.7-.7ZM572.2,705.7c-.3-.2-7.1-.2-7.5,0-6.6,3.8,14,3.8,7.5,0ZM702.4,708.7c-5.2,3.3-12.8,6.2-10.5,13.5,2.2-.2,1.7-6.7,5.2-6,1.9.4-1.2,6.1,3.7,4.5-4.3-8,2.8-5.7,4.5-9.7.6-1.5-3.6.5-3-2.2,0-.3,4.6-.5,4.5-3-5.2-1.8-4.3,2.8-4.5,3ZM677.7,707.2v1.5l.7-.7-.7-.7ZM714.3,707.2c-2.1-1.9-7.9,2.7-6,4.5,2.1,1.9,7.9-2.7,6-4.5ZM600.6,710.2c-2.9-1.9-9.3,4.4-7.5,6,2.3,1.9,11.2-3.5,7.5-6ZM575.2,711.7c-2.4-2.4-6.8,2.1-4.5,4.5,2.4,2.4,6.8-2.1,4.5-4.5ZM587.2,714.7h-3v1.5h3v-1.5ZM682.9,714.7c-.1-.2-4.4-.6-4.5.7-.2,3,5.7,1.4,4.5-.7ZM570.7,728.1c2-3.3-3.3-12.8-6-12-2.1.7,1.9,12.6,6,12ZM596.2,723.6c3.2-2.4-11.4-5-11.9-4.5-3.1,2.8,13.8,10.6-4.5,10.4,8.8,10.7,3.6-2,19.4,0,1.7-5.6-11.7.4-10.5-5.2.4-1.9,6.4,0,7.5-.7ZM712.1,719.1v1.5l.7-.7-.7-.7ZM581.2,720.6c-2.3-.9-5.1,1.9-4.5,4.5,6.8,2.7,6.2-3.8,4.5-4.5ZM612.6,728.1c-.3-6.8-7.1-10.1-5-3,.5,1.6,3.7,2.4,5,3,0,1.6-4.9,1.7-3,6,14-7.6,6.1-4.7,3-6ZM687.4,723.6v-3h-1.5v3h1.5ZM700.9,723.7c-1.5-.8-6.8-1-7.5,0-2.7,4.1,6.2,3.8,7.5,0ZM702.4,728.1c1.6,1.9,4.7-6.3.7-6s-.9,5.7-.7,6ZM718.8,723.7h-3v1.5h3v-1.5ZM725.6,723.6v1.5l.7-.7-.7-.7ZM578.2,734.1c1.5-1.5-2.6-8.1-4.5-7.5-.8.2-4.1,16.1-9,4.5-4.2,14.5,22.3,12.5,7.5,1.5,1.4-.4,5.3,2.1,6,1.5ZM714.3,728.1c-6.4-.1-7,13.3-1.5,6.4.3-.3.3-4.9,1.5-6.4ZM730.8,728.1c-.1-.2-4.4-.6-4.5.7-.2,3,5.7,1.4,4.5-.7ZM605.1,734.1c.2-.3.1-4.3,0-4.5-1.9-2.7-1.8,7.1,0,4.5ZM588.7,740.1c.2.3,7.3-.6,7.4-2.2.5-4.8-11.7-3-7.4,2.2ZM581.9,737.9c-1.1-1.1,0-2.8-2.1-2.3-.2,5.2-1.4,6.8,4.5,6,1-3.7-1.1-2.5-2.3-3.7ZM614.1,738.6c-5.3-3.9-16.6,11.8-4.6,7.2.5-.2-.1-4.1.2-4.3s11.9,2.5,4.5-3ZM590.2,744.6c3.1-3.1-2-3-4.5-1.5-.7,2.4,4.3,1.6,4.5,1.5ZM570.7,752.1c.8-1,.5-9.6-3.7-9-5.4.9,1.5,11.6,3.7,9ZM594.7,749.1c3.4.6,5.5-1.2,7.4-3.7-2.1-4.4-6.3,2.5-7.4,3.7ZM620.3,749c-1.1-1.4.9-5.6-.9-5.9-12.7-1.8,13.1,16,5.2,6-.3-.3-3.8.5-4.3,0ZM579.7,752.1c-2.5.9-6.7-7.2-7.5,1.5,10.1,2.5,6.4-.6,7.5-1.5s6.7-1.6,3-4.5c-3.9-3.1-2.6,4.4-3,4.5ZM590.2,753.6c.2-.1.6-4.4-.7-4.5-3-.2-1.4,5.7.7,4.5ZM712.8,753.6c.2-.3.1-4.3,0-4.5-1.9-2.7-1.8,7.1,0,4.5ZM579.7,765.5c1.6-2.5-4.2-9-5.2-8.9-3.8.2.3,16.5,5.2,8.9ZM588.7,758.1c-1-1.2-7.9-3.5-6,2.2s8.1.4,6-2.2ZM614.1,756.6c-1.7-1.7-6.3,3.2-4.5,6,1.8,2.9,5.6-4.8,4.5-6ZM707.6,758.1v1.5l.7-.7-.7-.7ZM623.8,764v1.5l.7-.7-.7-.7ZM709.8,765.5c-.1-.2-2.7-.6-3,.8-1,4.4,5.3,2,3-.8ZM585.7,768.5c-4-4-4,8.5,0,4.5.2-.2.2-4.3,0-4.5ZM591.7,770c0-.1-3.1-.6-3,.7-.3,3,.4,2.9,2.3.7.6-.4,1-1,.7-1.5ZM579.7,771.5c-2.7-1.5-6.2,3.5-2.2,4.5,3.5.9,2.4-4.3,2.2-4.5ZM597.6,773c-.1-.2-2.7-.6-3,.8-1,4.4,5.3,2,3-.8ZM620.1,779v-3h-1.5v3h1.5ZM586.4,783.5v1.5l.7-.7-.7-.7ZM599.1,783.5c-.1-.2-2.7-.6-3,.8-1,4.4,5.3,2,3-.8ZM693.8,792.1c-.7-1.9,1.6-3,.4-4.1-8.2,4.7-8.5,13.4.8,8.2,5-2.8-1.1-3.9-1.1-4.1ZM588.7,792.5c-4.4-2-16.9,4.5-14.9,8.2s13-4.1,14.9-8.2ZM619.3,797v1.5l.7-.7-.7-.7ZM697.1,798.5v1.5l.7-.7-.7-.7ZM590.9,800v1.5l.7-.7-.7-.7ZM708.3,802.9v-3h-1.5v3h1.5ZM578.2,808.9c1.5-1.5-2.9-6-4.5-4.5s2.9,6,4.5,4.5ZM702.4,807.5c-.2-.3-6.7-2.1-7.4.7,1.8,4.4,8.6,1,7.4-.7ZM587.2,813.4c.8-4.6-3.7-7.5-6-4.5s5.4,2.9,6,4.5ZM711.3,807.5c-.1-.2-2.7-.6-3,.8-1,4.4,5.3,2,3-.8ZM609.6,811.9c-3.4-2.6-3.3,2.9-.7,3,1.3,0,.9-2.9.7-3ZM703.8,811.9c-.2-.3-5.3,1.9-7.4,0,3.2,4.4,5.9,5.1,3,12,4.5,1.3,4.8-11.4,4.5-12ZM602.1,817.9c.9-1.4-1.1-4.3-3-4.5-1.4,2.5,1.3,7,3,4.5ZM573,814.9v1.5l.7-.7-.7-.7ZM582.7,822.4c1.1-1.1-.2-6.2-3.7-6-5,.3,1.8,8,3.7,6ZM712.1,819.4v1.5l.7-.7-.7-.7ZM598.4,825.4v1.5l.7-.7-.7-.7ZM584.9,829.9v1.5l.7-.7-.7-.7ZM710.6,829.9v1.5l.7-.7-.7-.7ZM703.9,831.4c-1.7-2.5-4.3,2-3,4.5,1.9-.2,3.9-3.1,3-4.5ZM581.2,834.4c-1.4-.9-4.3,1.1-4.5,3,2.5,1.4,7-1.3,4.5-3ZM702.4,837.4c-3.6-3.1-3.6,4.5-.7,4.5s.9-4.3.7-4.5ZM697.9,841.9v-3h-1.5v3h1.5ZM575.2,841.9c-4.6-7-5.4,9.6-.7,9,1.2-.2,1-8.5.7-9ZM691.9,849.3c3.6-3.6-6.7-9.6-9-3.7s7.7,4.9,9,3.7ZM572.2,850.9c-.1-.2-2.7-.6-3,.8-1,4.4,5.3,2,3-.8ZM686.7,850.9c-1.2,0-5.5,6.9-1.5,7.4s4.5-7.2,1.5-7.4ZM569.2,856.8c.5-.6-.9-1.6-1.5-2.2-3.5-2.3-.9,5.1,1.5,2.2ZM697.7,858.1c5.3-7.8-9.6-1.3-8.8,4.7,1.5-.8,8.5-4.3,8.8-4.7ZM679.2,856.8v1.5l.7-.7-.7-.7ZM573,861.3v1.5l.7-.7-.7-.7ZM678.5,861.3c-.5,2.2.7,3.2,2.2,4.4.3-1.4-.6-5.1-2.2-4.4ZM693.4,868.8c.1-6.8-6.4-2.2-10.5-3,3.8,7.4,7.3-3.8,10.5,3ZM572.2,865.8c0-.1-3.1-.6-3,.7-.3,3,.4,2.9,2.3.7.6-.4,1-1,.7-1.5ZM566.2,870.3v-3h-1.5v3h1.5ZM690.4,874.8c0-.1-3.1-.6-3,.7-.3,3,.4,2.9,2.3.7.6-.4,1-1,.7-1.5ZM569.2,883.7c-1.5-5.1-7-2.5-4.5,0s3.3-.1,4.5,0ZM685.9,882.3c-1.1-1.2-5.3,2.1-4.5,3,1.2,1.2,5.3-2.1,4.5-3ZM688.9,888.3c-2.1-2-13,3.9-10.5,7.5s13.9-4.2,10.5-7.5ZM561,901.7v1.5l.7-.7-.7-.7ZM682.1,914.6c-8.4-15.5-6.9,1.3.1,3.6s0-3.3-.1-3.6ZM556.5,915.2v1.5l.7-.7-.7-.7ZM564.7,921.2v-3h-1.5v3h1.5ZM678.4,925.7c.2-.1.6-4.4-.7-4.5-3-.2-1.4,5.7.7,4.5ZM551.3,928.7c1.8,1.8,6-3.2,4.5-6-1.7.2-5.8,4.6-4.5,6ZM684.4,960.1c-2.3-3.3-4.1-10.3-9-10.4-1,4.4,6.1,7.9,9,10.4ZM691.1,958.6v1.5l.7-.7-.7-.7ZM687.4,972.1c4.6,1.9,1.9-9.7-1.5-6s1.2,5.9,1.5,6ZM679.9,969.1h-3v1.5h3v-1.5ZM675.4,976.5c2.3-2.3-4.7-6.3-4.4-2.2,0,1,3.6,3.1,4.4,2.2ZM687.4,976.6c-4.4-3.1-2.2,5.6-1.5,6,2.3,1.3,3.1-4.8,1.5-6ZM682.9,979.6c-2.3-2.3-6.3,4.7-2.2,4.4s3.1-3.6,2.2-4.4ZM690.4,984c-.1-.2-2.7-.6-3,.8-1,4.4,5.3,2,3-.8ZM678.4,994.5c1.5-2.7-3.5-6.2-4.5-2.2s4.3,2.4,4.5,2.2ZM693.4,993v-3h-1.5v3h1.5ZM682.2,997.5v1.5l.7-.7-.7-.7Z"/>
  <path d="M503.4,327c-.6,1.4-2.9,1.3-3,1.5,1-.8,2.2-1,3-1.5Z"/>
  <path d="M421.6,173.4c-7.2,10.5-24.2,27.3-38.2,24.6-14.8-2.9,6.7-27.5-4.1-37,2.1,9-7.4,6.5-13.5,11.2-5.4,4.1-32.9,30.2-33.7,35.2-1.8,11.1,18.9,15.5,15.9,27,5.8.3,39.4,23,29.9,28.4s-13.7-4-8.2,4.5c8.4,1.8,14.3-21.9,17.1-11.2.2.7-8,10.1-3,13.5,9.2,6.3.4-13.1,7.5-9.8.5.2,4.8,8.6,4.5,9s-9.5-.5-9,5.2c1.3,13.9,6.7-4.8,9.8-2.2-.4,7.1-5.9,10.9-12.8,8.4-5.1-1.8-7.9-12.7-9.6-5.4l-64.1-51.4c-.5-6.7-1.6-16,.9-22.3,3.4-8.8,48.5-57.9,57.7-60.6,10.6-3.1,15.9,3.1,22.3,1.5,10.6-2.7,20.6-25.2,24-25.9,12.8-2.5,9.8,16,11.3,21.4.9,3.4,4.9,6.2,5.5,11,1.6,13-4.7,17.4-9.9,25ZM419.7,131c2.3,2.3,6.3-4.7,2.2-4.4-1,0-3.1,3.6-2.2,4.4ZM414.4,135.5v1.5l.7-.7-.7-.7ZM380.7,150.4v-3h-1.5v3h1.5ZM354.6,241.7v1.5l.7-.7-.7-.7ZM362.8,249.2c-.1-.2-2.7-.6-3,.8-1,4.4,5.3,2,3-.8ZM371,252.2v1.5l.7-.7-.7-.7ZM370.1,255.5c-7.9-4.2-2.7,7.4,1.7,4.2s-1.5-4.1-1.7-4.2ZM375.5,268.7v1.5l.7-.7-.7-.7Z"/>
  <path d="M584.8,155.9c5,4.6,26.3,24.3,14.4,27.5l-1.5-3c1.6,7.8-10.3,7.3-11.4,12.7-1.6,8.2,23.3,40.6,20.3,61.3-.6,4.5-12.8,21.2-18.6,20.4-8.5-1.2-3.1-5.3-3.7-6.1s-4,2-4.5,1.5c-1.3-1.5,4.1-8.3-.9-10.3-10.1-4.1-2.8,8-3.6,8.8-7.3,8-9.6-23.1,8.6-7.1,2.2,1.9-3.1,7.8,4.8,4.1-8.2-4.6,5.9-8.8,4.5-12.7-2.5-6.6-10.3,12.9-13.4,1.5-.3-1,21.7-9.6,3-5.2,4-16.4-6.4-21.2-13.2-30.9-4.1-5.7-2.8-11.9-3.2-12.4-.6-.7-16.2-7.6-17.1-7.6-8.4-.5-30.7,13.6-35.2,11.4s-4.7-23.5-4.5-25.6c1.3-11.9,25.8-32.5,37.1-36.2,19.9-6.5,24.2-5,38.3,8ZM579.7,159.4c2.1,1.2,3.7-4.7.7-4.5-1.3.1-.9,4.4-.7,4.5ZM584.9,183.4v1.5l.7-.7-.7-.7ZM588.7,208.8c-.1-.2-2.7-.6-3,.8-1,4.4,5.3,2,3-.8ZM587.9,219.3v1.5l.7-.7-.7-.7ZM585.7,223.8c1.1-1-4.4-4.5-6-3-1.1,1,4.4,4.5,6,3ZM589.4,228.3v1.5l.7-.7-.7-.7ZM599.1,229.8c-.3-.2-4.3-.1-4.5,0-2.7,1.9,7.1,1.8,4.5,0ZM590.2,235.7c.1,0,.6-3-.7-3-2.6.1-2.7,5.6.7,3ZM587.2,243.2c2.1,2.1,6.5-4.1,2.2-4.5-.4,0-2.4,4.3-2.2,4.5ZM594.7,243.2c-2.3,2.3,4.7,6.3,4.4,2.2,0-1-3.6-3.1-4.4-2.2ZM603.6,243.2h-3v1.5h3v-1.5ZM600.6,249.2c-.1-.2-2.7-.6-3,.8-1,4.4,5.3,2,3-.8ZM599.1,259.7c-.2-.2-4.3-.2-4.5,0-4,4,8.4,4,4.5,0ZM592.4,261.2v1.5l.7-.7-.7-.7ZM594.7,267.2c-.1-.2-2.7-.6-3,.8-1,4.4,5.3,2,3-.8Z"/>
  <path d="M504.4,52.8c6.5,6.8-11.4,4-11.9,4.5s3.2,4.8,3,6-5.4-1.7-4.5,2.2,12.9,1.2,13.4.8-2.1-5.3-1.5-6c1.9-1.8,16.5,5.7,16.4,6.7-.6,7-23.3-6.5-14.9,8.2,5.5-13,6.7,1.3,7.5,1.5s17.3-5,13.5,2.2c-.9,1.7-4.2.3-4.5.8-.5,1.1,7.4,10.5,1.6,17.1-.9,1-12.2-.1-4.6,5.3l-11.2,1.5c.9-2.8,8.5-11.1,10.5-12s4.6,6.7,5.2.7c.5-5.4-6.3-1-7.4-4.7s2.2-7.1,1.4-8-6.3,4.5-6.7,4.5c-.7,0-6.5-12.4-11.2-3.7-4.4,8.1,13.8-.4,13.1,10.8-.4,6-8.3,6.1-8.6,6.5-1.9,3,3.4,17.3,8.9,17.8-6-9.4,2.6-3.9,6.8-13.5,6.9-1.5-3,24.6-8.2,15.7l.7,6.7c-9.1-9.1-8.3-6.3-5.2,4.5-5.2,1.6-3.4-7.9-5.2-7.5s7,13.6-14.6,10.3c-3.3-.5-3.5-5.5-4.8-5.8-1.5-.3-4.2,3.4-5.7,2.8s-15.8-13.3-16.8-14.7c-8.2-12.6-15.6-38.4-9-52.5,5.7-12.2,33.1-21.6,45.7-15.6,4.4,2.1-.2,8.7,3.8,9.7,2.2.6,4.4-3.8,5.2-3ZM489.5,52.8c4.5-2.7-8.6-4.9-9-4.5-4.1,4,6.1,6.2,9,4.5ZM495.4,51.3c-.1-.2-4.4-.6-4.5.7-.2,3,5.7,1.4,4.5-.7ZM466.3,52.8v1.5l.7-.7-.7-.7ZM485,57.3c-1.2-2.6-5.2,3.2-4.5,6,1.5.1,4.6-5.6,4.5-6ZM495.4,79.7c3.8-4.4-6-10.3-10.5-9,5.6,1.1,7,13,10.5,9ZM490.9,81.3c-.3-.2-4.3-.1-4.5,0-2.7,1.9,7.1,1.8,4.5,0ZM495.4,85.7c-5.4-1-6.5,3.3-8.9,6.7,2.7-.9,9.8-2.8,8.9-6.7ZM477.5,91.7c.9-1.4-1.1-4.3-3-4.5-1.4,2.5,1.3,7,3,4.5ZM502.2,90.2v1.5l.7-.7-.7-.7ZM494.7,91.7c-.4,0-7.5,5.4-3,7.4,4.4-1.2,9.6-8.2,3-7.4ZM486.5,96.2c-.7-.9-8.9-5-10.4-.8,2.3-.3,14.7,5.9,10.4.8ZM498.4,108.2c.6-.6-3.9-5-4.5-4.5-1.6,1.5,3,6,4.5,4.5ZM485,105.2c-1.5-1.5-6,2.9-4.5,4.5s6-2.9,4.5-4.5ZM492.4,115.7c.4-.6-.4-7.7-3-7.5-1,2.7.5,11.4,3,7.5ZM501.4,117.2c2.7,1.5,6.2-3.5,2.2-4.5s-2.4,4.3-2.2,4.5ZM496.9,126.1c3.5-3.6-7.9-11.2-11.9-9-1,3.8,11.4,9.5,11.9,9ZM474.5,123.1c1.9.5,5.6-.4,5.9-2.2s-7.3-2.7-5.9,2.2Z"/>
  <path d="M558.8,285.1c.5-.4,4,.3,4.1-4,.3-12.3-9.8-.7-13.1-5.7,21.3-11.5,18.9.2,16.4,17.2,1.1-3.8-10-.4-10.5,0s5.9,6.5.8,7.4c-7.6,1.3-1.7-18.4-12.8-11.2-2.4,1.6.3,5.1,0,5.3-4.1,3.9-6.2-4.4-2.2-9,2.9-3.3,3.2,3.4,6,0,.8-1,0-7.2.7-7.5,1.7-.7,4.9,5.1,6,6-.1-.1-2.7-.6-3,.8-1,4.4,5.3,2,3-.8.7.6,2.1-1.4,4.5,1.5.1.2-4.8-1-3,3,4.2,1.6,2.5-2.5,3-3Z"/>
  <path d="M706.9,744.6c-.5.5-12.8-1.6-13.4-1.5s-1.3,11.1-4.5,2.3c-3.4-9.3,23.8-7.4,17.9-.8Z"/>
  <path d="M582.4,277.9c2.9,7.7-17.7,7.3-11.6,1.2.6-.6,4.1,2,4.5,1.5,1.5-2.2-1.8-8.6-1.5-9,.7-.9,8.5,5.7,8.6,6.2Z"/>
  <path d="M624.1,451.7c5.9,4.3-9.4,9.1-10,8.6s1.1-15,10-8.6Z"/>
  <path d="M488.5,840.4c-9.1,10.3,1.1,8.7,1.5,12.7,1.1,9.9-19.3-5.3-1.5-12.7Z"/>
  <path d="M668.3,938.8c0,.2,5.1.5,2.7,3.3-6.6,7.5-5.5-13.4-6-16.4,7.8.5,3.4,8.7,3.3,13.1Z"/>
  <path d="M658.6,643.1c.6.2,7.8,8.7,6.3,10.1-3.3,3.3-22.9-16.5-6.3-10.1Z"/>
  <path d="M498.9,906.2c-2.7,4.9-15.2,2.8-13.4-3.7s8.7,7.1,13.4,3.7Z"/>
  <path d="M783.1,452.7c-1.8,1.6-15-4-10.5-9s11,8.5,10.5,9Z"/>
  <path d="M590.2,454.2c-.4-.5.9-12.3,5.2-12,2.9,2.7-1.2,16.2-5.2,12Z"/>
  <path d="M688.9,758.1c.5-1.3-.6-5.2,0-6,1.7-2.3,9.9,3.6,0,6-1.5,3.7-2.6,9.6-6,12-.8-19.6,0-10.5,6-12Z"/>
  <path d="M340.4,720.6c1.1.2,5.1-2.3,6-1.5s-1.4,20.8-6,1.5c-6.3-1.2-6.5-6.8-.7-10.5,2.9,2.5.2,8.3.7,10.5Z"/>
  <path d="M642.5,392.9c1.7,2.4-1.1,9.5-4.5,10.5-2.4-3,1-15.3,4.5-10.5Z"/>
  <path d="M650,463.2c-4.9,6.2-9.6-7.8-2.9-9s3.5,8.3,2.9,9Z"/>
  <path d="M795.1,473.7c-.7.5-4.7-.6-6.5,0-1.5.5-.9,3-1,3-5.2.4,2.4-10.1,3.1-10.4,1.2-.6,4.8,7.2,4.5,7.5Z"/>
  <path d="M786.1,467.7c-1.4,3.2-10.9-5.6-9-7.5,1.9-1.9,10.4,4.3,9,7.5Z"/>
  <path d="M462.6,718.1c8.8,8.8-6.6,3.2-7,2.5-.5-.8,2-7.5,7-2.5Z"/>
  <path d="M679.9,388.4c-2.4-5.8,6.9-3.7,8.9.8-1.2,3.9-8.8-.4-8.9-.8Z"/>
  <path d="M425.6,651.8c-2.2,2-11.2-3.6-7.5-6,3-1.9,9.3,4.4,7.5,6Z"/>
  <path d="M383.7,858.3c-1.2,1.7-7.2-5.1-4.5-9,5-1,5.4,7.7,4.5,9Z"/>
  <path d="M641,454.2c-5.1,2.7-8.1-12.1,0-6.8,2.3,1.5.3,6.6,0,6.8Z"/>
  <path d="M516.4,58.8c-1.6,1.5-10.8-5.4-7.5-7.5,2.3-1.4,9,6,7.5,7.5Z"/>
  <path d="M374.8,831.4c.3.4.6,7.3,1.5,9-6.9,1-6.4-15.1-1.5-9Z"/>
  <path d="M413.7,642.8c3.1,2.7-6.7,6.1-9,4.5.4-2.9,7.8-5.5,9-4.5Z"/>
  <path d="M487,858.3c2.1,2.4,1.6,9.7-3.7,8.9,4.6-7.3.1-3.4-.7-8.9,1.2.1,4.2-.3,4.5,0Z"/>
  <path d="M558.8,268.7c0-2.1,7.1-6.3,7.5-6,1.9,1.9-4.5,7.5-7.5,6Z"/>
  <path d="M479.5,847.8c-.3.2-7.9,1-7.5-1.5,3.5-4,10.6-1,7.5,1.5Z"/>
  <path d="M485.5,832.9c2.6,2-2.4,7.1-4.5,4.5-1.4-1.8,2.7-5.8,4.5-4.5Z"/>
  <path d="M684.4,835.9c-.2-.3,2.8-5.8,3.7-5.9,4.9-.7-1.4,8.3-3.7,5.9Z"/>
  <path d="M685.9,743.1c1.4,1.8-2.7,5.8-4.5,4.5-2.6-2,2.4-7.1,4.5-4.5Z"/>
  <path d="M566.2,666.8c.2.2,1.2,5.6-2.2,4.5-4.8-1.6-1.2-7.2,2.2-4.5Z"/>
  <path d="M593.2,704.2c-1.4,3.9-10.6-1.2-7.5-3,2-1.1,5.2,3.3,7.5,3Z"/>
  <path d="M509.4,385.4c-1.5,1.5-6-3-4.5-4.5,1.5-1.5,6,3,4.5,4.5Z"/>
  <path d="M466,749.1c1,1.4-.4,5.7-3,6-1.1-2.2.7-9.3,3-6Z"/>
  <path d="M467.5,764c-3.6-.1-2.8-7.9-.7-7.5s.4,5.8.7,7.5Z"/>
  <path d="M665,958.6c.9-.9,4.4,1.2,4.4,2.2.2,4.1-6.8.1-4.4-2.2Z"/>
  <path d="M358.4,443.7c-.3,0-2.2-3.9-3-4.4,5.2-1.3,7.8,3.9,3,4.4Z"/>
  <path d="M612.6,443.8c-.2-.2-.6-5.9.7-6,4-.3.8,7.8-.7,6Z"/>
  <path d="M642.5,406.3c-.9-.9,1.2-4.4,2.2-4.4,4.1-.2.1,6.8-2.2,4.4Z"/>
  <path d="M705.3,373.4c.9,1.4-1.1,4.3-3,4.5-1.4-2.5,1.3-7,3-4.5Z"/>
  <path d="M320.9,401.8c-1.2-.1-4.2.3-4.5,0-2.5-2.5,3-5.2,4.5,0Z"/>
  <path d="M457,708.7c.9,1.4-1.1,4.3-3,4.5-1.4-2.5,1.3-7,3-4.5Z"/>
  <path d="M615.6,436.3c-1,1.3-3.8-3.4-1.5-6,2.5-.6,1.6,5.7,1.5,6Z"/>
  <path d="M566.2,690.7c-1.4,1.1-7.5-8.2-2.2-10.4-1.9,2.8,3,9.8,2.2,10.4Z"/>
  <path d="M653,660.8c2.3,2.8-4,5.2-3,.8s2.9-.9,3-.8Z"/>
  <path d="M685.9,749.1c2.3,2.8-4,5.2-3,.8.3-1.4,2.9-.9,3-.8Z"/>
  <path d="M543.8,925.7c2.3,2.8-4,5.2-3,.8s2.9-.9,3-.8Z"/>
  <path d="M641,455.8c2.3,2.8-4,5.2-3,.8s2.9-.9,3-.8Z"/>
  <path d="M341.8,708.7c-1.8,2.7-1.9-7.1,0-4.5.1.2.2,4.2,0,4.5Z"/>
  <path d="M654.5,650.3c2.7,1.8-7.1,1.9-4.5,0s4.2-.2,4.5,0Z"/>
  <path d="M614.1,363c2.6,3.4-2.9,3.3-3,.7s2.9-.9,3-.7Z"/>
  <path d="M525.9,339c-2.4,2.9-5-4.6-1.5-2.2.6.6,2,1.7,1.5,2.2Z"/>
  <rect x="871.4" y="669.8" width="3" height="1.5"/>
  <rect x="413.7" y="638.3" width="1.5" height="3"/>
  <rect x="666.5" y="882.3" width="1.5" height="3"/>
  <path d="M573.7,283.6c2.5-1.9,1.3,4.7-.8,4.4-.5,0,.6-4.3.8-4.4Z"/>
  <rect x="270.1" y="336" width="1.5" height="3"/>
  <polygon points="667.2 891.3 668 892 667.2 892.7 667.2 891.3"/>
  <polygon points="683.7 454.2 684.4 455 683.7 455.7 683.7 454.2"/>
  <polygon points="471.3 829.9 472 830.6 471.3 831.4 471.3 829.9"/>
  <polygon points="344.1 448.3 344.9 449 344.1 449.8 344.1 448.3"/>
  <polygon points="869.2 653.3 869.9 654 869.2 654.8 869.2 653.3"/>
  <polygon points="727 434.8 727.8 435.5 727 436.3 727 434.8"/>
  <polygon points="520.1 70.8 520.9 71.5 520.1 72.3 520.1 70.8"/>
  <polygon points="453.3 714.7 454.1 715.4 453.3 716.2 453.3 714.7"/>
  <polygon points="558 666.8 558.8 667.5 558 668.3 558 666.8"/>
  <path d="M467.5,805.9c-1.2-1.1,2.2-5.3,3-4.5,1.2,1.2-2.1,5.2-3,4.5Z"/>
  <polygon points="281.3 413.8 282 414.6 281.3 415.3 281.3 413.8"/>
  <path d="M865.4,627.9c2.9-2.9,9.2,4.8,3.7,6s-4.8-4.9-3.7-6Z"/>
  <polygon points="863.2 630.8 863.9 631.6 863.2 632.3 863.2 630.8"/>
  <path d="M626.1,478.2c2.7,1.8-7.1,1.9-4.5,0s4.2-.2,4.5,0Z"/>
</svg>