<?xml version="1.0" encoding="UTF-8"?>
<svg id="Livello_1" xmlns="http://www.w3.org/2000/svg" version="1.1" width="1794.7" height="1080" viewBox="0 0 1794.7 1080">
  <!-- Generator: Adobe Illustrator 30.1.0, SVG Export Plug-In . SVG Version: 2.1.1 Build 136)  -->
  <defs>
    <style>
      .st0 {
        fill: #010101;
      }
    </style>
  </defs>
  <path class="st0" d="M541.9,292.3c0,94.6-114.7,178.6-254.6,175.3-76.5-1.8-142.7-29.3-185.6-69.1v-32c0-14.9-10.2-28-25.9-36.8v72.7c0,14.5,10.3,27.2,25.9,35.4v23.8H23.9V21.9h77.7v125.3c-15.2,6.9-25.2,18.8-25.2,32.2v8.9h23.2c42.9-41,110.1-69.5,187.7-71.3,139.3-3.3,254.6,80.5,254.6,175.3ZM474.7,291.7c0-70.3-84.3-128.9-186.5-128.5-100.7.4-182.9,58-184.3,126.6-1.4,69.9,81.1,129.8,184.3,130.3,102.6.4,186.5-58.3,186.5-128.4Z"/>
  <path class="st0" d="M736.5,408.2v53.5h-85.5c-5.7.2-30.2.6-51.3-11.9-26.7-15.7-25.8-38.7-25.6-41.6V81.1c0-14.5-10.2-27.2-25.7-35.4v-23.8h102.6v386.3h85.5Z"/>
  <path class="st0" d="M1238.1,117.1v338.8h-77.7v-23.8c15.6-8.2,25.9-20.9,25.9-35.4v-72.8c-15.4,8.6-25.4,21.4-25.8,36v13.9c-7,7.7-18.2,18.6-34.5,29.7-78,53.3-225.6,80.7-310.7,35.7-4.8-2.5-57.4-31.2-60.4-77.3,0-.4,0-.8,0-1.1h-.2V117.1h77.7v237.7c0,0,.1,0,.2,0,0,.4,0,.8,0,1.2.8,13.5,7.7,27.6,17.3,35.7,39.6,33.4,194.6,22.2,267.6-41.6,34.2-30,41.4-63.5,43-81.9V117.1h77.7Z"/>
  <path class="st0" d="M1352.6,284.9c-.3,11.5-1.9,79,72.2,116.1,45.1,22.6,94.9,22.2,112.4,22.1,22.8-.2,66.5-.4,104.3-22.1,23.5-13.4,34.8-29.5,40.1-38.7h72.2c-5.5,15-19.3,43.4-56.2,66.4-53.3,33.2-119.4,33.2-160.5,33.2-39.8,0-108.6,0-168.5-33.2-83.4-46.1-88.7-122.6-88.3-143.7.3-15.2,1.8-91.2,88.3-138.2,61-33.2,130.1-33.2,168.5-33.2s107.3,0,160.5,33.2c36.9,22.9,50.7,51.3,56.2,66.4,2.6,7.8,4.9,16.5,6.4,26,3.2,20.3,1.7,38.3-1.1,52.8h-140.6c-12.7-10.8-31.8-17.8-53.4-17.8h-211.9c-.5,4.8-.6,8.6-.7,10.8ZM1362.3,238.4h328.1s0,0,0,0c-2-9.5-5.2-18-8.7-25.2-5.5-9.5-16.9-25.5-40.1-38.8-37.8-21.6-81.5-22-104.3-22.1-17.8-.1-67.3-.5-112.4,22.1-35.4,17.8-53.4,42.4-62.6,64.1Z"/>
  <path class="st0" d="M545.4,600.3v291.2c-.7,8.3-2.4,18.6-6.1,30.2-4.9,15.5-11.4,26.7-13,29.4-6,10.3-16,24.4-32.6,39.5-46.8,38.8-117.9,65.5-200,67.3-121.1,2.6-224.7-49.9-262.3-119h79.5c33.5,42.2,102.4,71.7,181.7,71.4,112.4-.4,202.5-60.4,200.9-130.3,0-.2,0-.4,0-.6h0v-72.2c-15.7,8.7-25.9,21.9-25.9,36.8v31.9c-42.9,39.8-109.1,67.3-185.6,69.1-139.9,3.3-254.6-80.7-254.6-175.3s115.4-178.6,254.6-175.3c77.6,1.8,144.8,30.3,187.7,71.3h23.2v-3c0-13.4-10.1-25.2-25.2-32.2v-30.1h77.7ZM465.5,767.1c-1.4-68.7-83.6-126.2-184.3-126.6-102.2-.4-186.5,58.1-186.5,128.5s83.9,128.9,186.5,128.5c103.1-.4,185.7-60.4,184.3-130.3Z"/>
  <path class="st0" d="M838,594.3c139.2,0,254.6,79,254.6,175.3s-115.4,175.3-254.6,175.3c-138.2,0-252.4-77.8-254.7-172.5-2.3-96.9,113.3-178.2,254.7-178.2ZM838.9,897.4c103,0,186.5-57.5,186.5-128.5s-83.5-128.4-186.5-128.4-186.5,57.5-186.5,128.4,83.5,128.5,186.5,128.5Z"/>
  <path class="st0" d="M1135.4,885.5v-381.5h102.6v23.8c-15.5,8.2-41.8,20.9-41.8,35.4v322.3c.2,2.9,1,25.9-25.6,41.6-21.2,12.5-35.2,11.9-35.2,11.9h0v-53.5s0,0,0,0Z"/>
  <path class="st0" d="M1025.4,504h53.5s0,0,0,0c0,0,.8,14.1-11.9,35.2-10.4,17.2-38.7,17.7-41.6,17.6H83.1c-14.5,0-27.2,13-35.4,28.4h-23.8s0-81.2,0-81.2h1001.5s0,0,0,0Z"/>
  <path class="st0" d="M1585.8,504h-294.5s-.4,13.9,11.9,35.2c11.5,19.9,38.7,17.7,41.6,17.6h241c2.8.2,30.1,2.4,41.6-17.6,12.3-21.3,11.9-35.2,11.9-35.2h0s-53.5,0-53.5,0Z"/>
  <path class="st0" d="M1762.2,504v435.1h-77.7v-23.8c15.6-8.2,25.9-20.9,25.9-35.4v-72.8c-15.7,8.7-25.9,21.9-25.9,36.8v32c-42.9,39.8-109.1,67.3-185.6,69.1-139.9,3.3-254.6-80.8-254.6-175.3s115.4-178.6,254.6-175.3c77.6,1.8,144.8,30.3,187.7,71.3h23.2v-8.9c0-13.4-10.1-25.2-25.2-32.2v-120.4h77.7ZM1682.2,767c-1.4-68.7-83.6-126.2-184.3-126.6-102.2-.4-186.5,58.1-186.5,128.5s83.9,128.9,186.5,128.5c103.1-.4,185.7-60.4,184.3-130.3Z"/>
</svg>