<?xml version="1.0" encoding="UTF-8"?>
<svg id="Livello_1" xmlns="http://www.w3.org/2000/svg" version="1.1" width="1044.4" height="654.6" viewBox="0 0 1044.4 654.6">
  <!-- Generator: Adobe Illustrator 30.1.0, SVG Export Plug-In . SVG Version: 2.1.1 Build 136)  -->
  <defs>
    <style>
      .st0 {
        fill: #dcdddd;
      }
    </style>
  </defs>
  <path class="st0" d="M317.2,182.4c0,54.4-66,102.8-146.5,100.9-44-1-82.1-16.8-106.8-39.7v-18.4c0-8.5-5.9-16.1-14.9-21.2v41.8c0,8.3,5.9,15.7,14.9,20.4v13.7H19.3V26.8h44.7v72.1c-8.7,4-14.5,10.8-14.5,18.5v5.1h13.3c24.7-23.6,63.3-40,108-41,80.1-1.9,146.5,46.3,146.5,100.9ZM278.6,182c0-40.5-48.5-74.1-107.3-73.9-57.9.2-105.2,33.3-106,72.8-.8,40.2,46.7,74.7,106,75,59,.3,107.3-33.6,107.3-73.9Z"/>
  <path class="st0" d="M429.2,249.1v30.8h-49.2c-3.3.1-17.3.3-29.5-6.8-15.3-9.1-14.9-22.3-14.8-23.9V60.9c0-8.3-5.9-15.7-14.8-20.4v-13.7h59v222.3h49.2Z"/>
  <path class="st0" d="M717.7,81.6v194.9h-44.7v-13.7c9-4.7,14.9-12,14.9-20.4v-41.9c-8.8,4.9-14.6,12.3-14.8,20.7v8c-4,4.4-10.5,10.7-19.9,17.1-44.9,30.7-129.8,46.4-178.8,20.5-2.7-1.4-33-18-34.8-44.5,0-.2,0-.4,0-.6h-.1V81.6h44.7v136.8s0,0,.1,0c0,.2,0,.5,0,.7.4,7.8,4.4,15.9,9.9,20.5,22.8,19.2,112,12.8,153.9-23.9,19.7-17.2,23.8-36.5,24.8-47.1v-86.9h44.7Z"/>
  <path class="st0" d="M783.7,178.1c-.2,6.6-1.1,45.4,41.6,66.8,26,13,54.6,12.8,64.6,12.7,13.1,0,38.3-.3,60-12.7,13.5-7.7,20-17,23.1-22.3h41.6c-3.2,8.7-11.1,25-32.3,38.2-30.6,19.1-68.7,19.1-92.4,19.1-22.9,0-62.5,0-97-19.1-48-26.5-51-70.5-50.8-82.7.2-8.8,1.1-52.5,50.8-79.5,35.1-19.1,74.9-19.1,97-19.1s61.7,0,92.4,19.1c21.2,13.2,29.2,29.5,32.3,38.2,1.5,4.5,2.8,9.5,3.7,15,1.8,11.7,1,22-.7,30.4h-80.9c-7.3-6.2-18.3-10.3-30.7-10.3h-121.9c-.3,2.8-.4,4.9-.4,6.2ZM789.2,151.4h188.8s0,0,0,0c-1.2-5.5-3-10.4-5-14.5-3.2-5.5-9.7-14.6-23.1-22.3-21.8-12.4-46.9-12.6-60-12.7-10.3,0-38.7-.3-64.6,12.7-20.4,10.2-30.7,24.4-36,36.9Z"/>
  <path class="st0" d="M319.3,359.6v167.5c-.4,4.8-1.4,10.7-3.5,17.4-2.8,8.9-6.5,15.3-7.5,16.9-3.5,5.9-9.2,14-18.8,22.7-26.9,22.3-67.8,37.7-115,38.7-69.7,1.5-129.2-28.7-150.9-68.4h45.7c19.3,24.3,58.9,41.3,104.6,41.1,64.7-.2,116.5-34.8,115.6-75,0-.1,0-.2,0-.3h0v-41.6c-9,5-14.9,12.6-14.9,21.2v18.3c-24.7,22.9-62.7,38.7-106.8,39.7-80.5,1.9-146.5-46.5-146.5-100.9s66.4-102.7,146.5-100.9c44.6,1,83.3,17.4,108,41h13.3v-1.7c0-7.7-5.8-14.5-14.5-18.5v-17.3h44.7ZM273.3,455.5c-.8-39.5-48.1-72.6-106-72.8-58.8-.2-107.3,33.4-107.3,73.9s48.3,74.1,107.3,73.9c59.3-.2,106.8-34.8,106-75Z"/>
  <path class="st0" d="M487.6,356.1c80.1,0,146.5,45.4,146.5,100.9s-66.4,100.9-146.5,100.9c-79.5,0-145.2-44.7-146.5-99.2-1.3-55.7,65.2-102.5,146.5-102.5ZM488.1,530.5c59.3,0,107.3-33.1,107.3-73.9s-48-73.9-107.3-73.9-107.3,33.1-107.3,73.9,48,73.9,107.3,73.9Z"/>
  <path class="st0" d="M658.7,523.6v-219.5h59v13.7c-8.9,4.7-24,12-24,20.4v185.4c.1,1.6.6,14.9-14.8,23.9-12.2,7.2-20.2,6.8-20.2,6.8h0v-30.8s0,0,0,0Z"/>
  <path class="st0" d="M595.4,304.2h30.8s0,0,0,0c0,0,.5,8.1-6.8,20.2-6,9.9-22.3,10.2-23.9,10.1H53.3c-8.3,0-15.7,7.5-20.4,16.4h-13.7s0-46.7,0-46.7h576.2s0,0,0,0Z"/>
  <path class="st0" d="M917.8,304.2h-169.4s-.2,8,6.8,20.2c6.6,11.5,22.3,10.2,23.9,10.1h138.7c1.6,0,17.3,1.4,23.9-10.1,7.1-12.2,6.8-20.2,6.8-20.2h0s-30.8,0-30.8,0Z"/>
  <path class="st0" d="M1019.3,304.2v250.3h-44.7v-13.7c9-4.7,14.9-12,14.9-20.4v-41.9c-9,5-14.9,12.6-14.9,21.2v18.4c-24.7,22.9-62.7,38.7-106.8,39.7-80.5,1.9-146.5-46.5-146.5-100.9s66.4-102.7,146.5-100.9c44.6,1,83.3,17.4,108,41h13.3v-5.1c0-7.7-5.8-14.5-14.5-18.5v-69.3h44.7ZM973.3,455.5c-.8-39.5-48.1-72.6-106-72.8-58.8-.2-107.3,33.4-107.3,73.9s48.3,74.1,107.3,73.9c59.3-.2,106.8-34.8,106-75Z"/>
</svg>